<svg width="90" height="126" viewBox="0 0 90 126" fill="none" xmlns="http://www.w3.org/2000/svg">
<path d="M23.0634 70.7653L23.0238 63.2094L37.8214 48.8379L20 26H64.6847L64.7644 36.0845L60.0592 31.426H31.1069L45.243 49.3204L23.0634 70.7653Z" fill="#821923"/>
<path d="M64.7634 76.037L23.1106 75.9781L23.103 74.8094L47.3792 51.9739L50.8749 56.3602L36.1696 70.6287L59.8967 70.6613L64.7634 66.2117V76.037Z" fill="#821923"/>
<path d="M35.5775 99.9297H32.7552V90.801H26.0382V99.9297H23.2159V88.0587H35.5775V99.9297Z" fill="#821923"/>
<path d="M63.6177 99.9297H60.7955V90.801H54.0784V99.9297H51.2562V88.0587H63.6177V99.9297Z" fill="#821923"/>
<path d="M48.9261 100H37.9993V97.2577H46.1039V90.7309H37.9993V87.9887H48.9261V100Z" fill="#821923"/>
<path d="M58.3955 93.8859H55.1139V96.8796H58.3955V93.8859Z" fill="#821923"/>
<path d="M63.6468 83.8634H60.7664V86.8571H63.6468V83.8634Z" fill="#821923"/>
<path d="M70.1045 97.0749H67.0236V99.8737H70.1045V97.0749Z" fill="#821923"/>
</svg>
