<svg width="750" height="501" viewBox="0 0 750 501" fill="none" xmlns="http://www.w3.org/2000/svg">
<mask id="mask0_182_47137" style="mask-type:luminance" maskUnits="userSpaceOnUse" x="0" y="0" width="750" height="501">
<path d="M750 0.0302734H0V500.03H750V0.0302734Z" fill="white"/>
</mask>
<g mask="url(#mask0_182_47137)">
<path d="M588.77 192.111C613.28 180.741 578.54 160.651 563.96 175.981C562.42 147.101 520.52 163.331 523.63 175.861C502.55 170.411 492.07 187.66 493.83 195.57C496.39 207.08 513.18 202.611 520.21 200.531C522.62 213.601 552.27 211.11 554.44 201.51C563.09 208.771 583.3 213.701 593.19 204.281C597.62 200.061 597.74 192.591 588.78 192.101L588.77 192.111Z" fill="#E9EAEB"/>
<path d="M452.58 65.7903C435.48 57.8603 459.72 43.8503 469.89 54.5403C470.96 34.4003 500.18 45.7203 498.01 54.4603C512.71 50.6603 520.02 62.6903 518.8 68.2103C517.02 76.2403 505.3 73.1203 500.4 71.6703C498.72 80.7803 478.04 79.0503 476.53 72.3603C470.5 77.4303 456.41 80.8603 449.51 74.2903C446.42 71.3503 446.33 66.1403 452.59 65.8003L452.58 65.7903Z" fill="#E9EAEB"/>
<path d="M243.79 108.58C249.23 94.3302 223.21 78.6002 207.36 99.8602C203.84 83.7702 183.11 85.6502 174.52 111.11C156 102.6 139.57 135.85 172.2 139.66C170.01 159.17 205.54 160.08 207.45 146.05C214.12 163.43 253.42 147.4 251.3 137.73C260.08 141.63 276.63 129.74 276.36 120.21C275.93 104.92 254.78 101.07 243.78 108.57L243.79 108.58Z" fill="#E9EAEB"/>
<path d="M207.68 224.61C204.67 215.17 186.95 219.48 182.52 227.62C180.56 226.21 177.3 225.22 174.5 225.46C169.08 225.93 165.13 229.24 164.01 233.25C155.54 233.8 151.56 237.24 153.02 244.41C155.1 254.65 168.61 252.07 173.48 246.64C177.78 262.8 205 254.46 205.04 244.23C236.3 240.63 221.38 214.03 207.69 224.63L207.68 224.61Z" fill="#E9EAEB"/>
<path d="M651.73 553.36C651.73 589.62 644.75 624.24 632.07 655.97C630 661.14 627.79 666.24 625.42 671.25C581.17 765.13 485.67 830.09 375 830.09C227.01 830.09 106.16 713.92 98.64 567.81C98.52 565.31 98.42 562.8 98.36 560.28C98.33 559.16 98.31 558.02 98.29 556.9V556.82C98.29 555.67 98.27 554.51 98.27 553.36C98.27 487.55 121.25 427.1 159.62 379.61C162.57 375.96 165.6 372.38 168.74 368.88C170.54 366.87 172.37 364.89 174.23 362.92C188.1 348.29 203.57 335.19 220.33 323.87C224.84 320.82 229.45 317.91 234.14 315.12C236.97 313.44 239.84 311.82 242.74 310.23C282.03 288.81 327.09 276.63 375 276.63C390.77 276.63 406.23 277.95 421.27 280.49C422.57 280.71 423.88 280.94 425.18 281.18C445.25 284.85 464.56 290.68 482.86 298.44C488.37 300.78 493.8 303.28 499.12 305.96C505.14 308.98 511.03 312.22 516.79 315.67C597.62 363.97 651.74 452.34 651.74 553.35L651.73 553.36Z" fill="#13608C"/>
<g style="mix-blend-mode:multiply" opacity="0.1">
<path d="M410.58 361.31C416.42 387.6 399.91 401.15 376.12 398.97C350.31 396.59 327.9 391.13 301.65 392.84C278.61 394.34 282.66 387.4 284 366.96C285.91 337.67 264.8 347.6 245.83 356.57C232.74 362.75 198.8 385.61 204.88 356.09C207.12 345.27 213.29 334.21 220.33 323.88C224.84 320.83 229.45 317.92 234.14 315.13C236.97 313.45 239.84 311.83 242.74 310.24C282.03 288.82 327.09 276.64 375 276.64C390.77 276.64 406.23 277.96 421.27 280.5C422.57 280.72 423.88 280.95 425.18 281.19C410.76 291.12 380.7 294.75 378.65 309.96C376.84 323.37 407.07 345.49 410.59 361.31H410.58Z" fill="#6A7178"/>
</g>
<path d="M373.55 310.57C371.89 322.41 399.6 341.94 402.82 355.9C408.17 379.11 393.03 391.07 371.22 389.15C347.56 387.05 327.02 382.22 302.95 383.73C281.84 385.06 285.55 378.94 286.78 360.88C288.53 335.01 269.18 343.79 251.79 351.71C239.8 357.16 208.67 377.34 214.26 351.29C216.9 338.96 225.54 326.3 234.14 315.12C275.4 290.67 323.56 276.64 375 276.64C390.77 276.64 406.23 277.96 421.27 280.5C412.43 293.17 375.74 295 373.55 310.58V310.57Z" fill="#036846"/>
<g style="mix-blend-mode:multiply" opacity="0.1">
<path d="M136.24 559.449C123.8 567.629 110.88 567.15 98.63 567.81C98.51 565.31 98.41 562.8 98.35 560.28C98.32 559.16 98.3 558.02 98.28 556.9V556.819C99.08 490.099 121.83 428.69 159.61 379.6C162.56 375.95 165.59 372.37 168.73 368.87C170.53 366.859 172.36 364.88 174.22 362.91C184.39 358.63 196.99 357.97 199.46 369.5C204.31 392.07 168.51 412.72 162.66 432.73C150.17 475.36 186.09 526.599 136.24 559.439V559.449Z" fill="#6A7178"/>
</g>
<g style="mix-blend-mode:screen" opacity="0.3">
<path d="M373.55 310.569C371.89 322.409 399.6 341.939 402.82 355.899C408.17 379.109 393.03 391.069 371.22 389.149C347.56 387.049 327.02 382.219 302.95 383.729C281.84 385.059 285.55 378.939 286.78 360.879C288.53 335.009 269.18 343.789 251.79 351.709C239.8 357.159 208.67 377.339 214.26 351.289C216.9 338.959 225.54 326.299 234.14 315.119C235.71 314.189 237.28 313.279 238.87 312.379C235.03 318.339 231.9 324.529 230.58 330.619C226.12 351.449 250.98 335.319 260.57 330.959C274.47 324.639 289.93 317.619 288.53 338.289C287.55 352.719 284.59 357.609 301.46 356.549C320.68 355.339 337.1 359.199 356 360.869C373.43 362.409 385.52 352.849 381.24 334.299C378.67 323.139 356.53 307.539 357.86 298.069C359.41 287.049 382.61 284.639 392.79 277.189C402.43 277.799 411.93 278.909 421.26 280.479C412.42 293.149 375.73 294.979 373.54 310.559L373.55 310.569Z" fill="#036846"/>
</g>
<path d="M134.09 552.43C122.27 560.15 109.99 559.64 98.35 560.28C98.29 557.98 98.26 555.67 98.26 553.36C98.26 482.49 124.91 417.84 168.73 368.88C178.52 364.43 189.8 361.88 192.24 373.13C196.82 394.27 158.37 414.33 152.84 433.07C141.06 473 181.12 521.68 134.09 552.43Z" fill="#036846"/>
<g style="mix-blend-mode:multiply" opacity="0.1">
<path d="M651.73 553.36C651.73 589.62 644.75 624.24 632.07 655.97C630 661.14 627.79 666.24 625.42 671.25C620.34 672.64 614.91 673.61 609.09 674.11C558.55 678.49 366.56 617.59 353.52 497.38C350.09 465.78 367.63 439.67 394.53 422.46C411.9 411.34 467.47 405.79 477.14 388.94C485.23 374.86 463.62 346.78 464.61 329.99C465.51 314.68 472.4 304.69 482.85 298.45C488.36 300.79 493.79 303.29 499.11 305.97C505.13 308.99 511.02 312.23 516.78 315.68C597.61 363.98 651.73 452.35 651.73 553.36Z" fill="#6A7178"/>
</g>
<g style="mix-blend-mode:screen" opacity="0.3">
<path d="M134.09 552.43C122.27 560.15 109.99 559.64 98.3501 560.28C98.3301 559.58 98.3201 558.88 98.3101 558.18C104.6 557.31 110.91 555.52 117.1 551.48C164.14 520.73 124.07 472.05 135.85 432.12C141.38 413.38 179.83 393.32 175.25 372.18C174.78 370.02 173.99 368.37 172.94 367.14C181.53 363.98 190.14 363.46 192.24 373.12C196.82 394.26 158.37 414.32 152.84 433.06C141.06 472.99 181.12 521.67 134.09 552.42V552.43Z" fill="#036846"/>
</g>
<path d="M651.73 553.36C651.73 589.62 644.75 624.24 632.07 655.97C624.71 659.22 616.39 661.36 607.02 662.18C560.25 666.29 382.54 609.21 370.47 496.55C367.3 466.94 383.52 442.47 408.42 426.34C424.49 415.92 475.93 410.72 484.89 394.92C492.37 381.72 472.37 355.41 473.28 339.67C474.35 321.28 484.54 311.07 499.1 305.97C589.61 351.46 651.72 445.16 651.72 553.36H651.73Z" fill="#036846"/>
<g style="mix-blend-mode:screen" opacity="0.3">
<path d="M616.66 660.8C613.58 661.42 610.37 661.89 607.03 662.18C560.26 666.29 382.55 609.21 370.48 496.55C367.31 466.95 383.53 442.47 408.43 426.34C424.5 415.92 475.94 410.72 484.9 394.92C492.38 381.72 472.38 355.41 473.29 339.67C474.36 321.28 484.55 311.07 499.11 305.97C511.34 312.11 523.05 319.14 534.16 326.98C521.25 331.94 512.31 341.48 511.34 358.16C510.48 372.98 529.32 397.76 522.28 410.2C513.84 425.07 465.39 429.97 450.26 439.78C426.81 454.96 411.53 478.02 414.52 505.9C424.52 599.31 555.42 652.15 616.66 660.81V660.8Z" fill="#036846"/>
</g>
<path d="M376.44 128.67C375.75 129.79 348.7 129.08 322.36 128.12C314.94 127.85 307.58 127.56 300.89 127.28C301.4 111.92 302.58 80.9704 307.03 76.2404C309.87 73.2104 314.1 71.4804 317.92 70.9204C318.24 70.8704 318.55 70.8304 318.87 70.8004C340.99 68.0204 379.51 64.7804 381.35 74.5804C383.93 88.2404 377.76 126.49 376.43 128.67H376.44Z" fill="#8C4D03"/>
<g style="mix-blend-mode:multiply" opacity="0.6">
<path d="M322.36 128.121C314.94 127.851 307.58 127.561 300.89 127.281C301.4 111.921 302.58 80.9708 307.03 76.2408C309.87 73.2108 314.1 71.4808 317.92 70.9208C318.24 70.8708 318.55 70.8308 318.87 70.8008C322.4 70.4608 325.43 71.1708 326.45 72.8208C328.42 76.0008 323.41 119.281 322.36 128.121Z" fill="#8C4D03"/>
</g>
<path d="M334.57 69.1608C334.57 69.1608 335.82 71.6408 337.1 70.5808C338.38 69.5208 338.18 65.3708 340.45 63.2208C342.72 61.0708 346.52 60.5308 350.39 61.1908C357.95 62.4908 353.07 69.6008 357.24 70.1008C359.42 70.3608 361.33 58.3008 348.44 57.6508C341.88 57.3208 333.33 61.0808 334.59 69.1708L334.57 69.1608Z" fill="#6B3B02"/>
<path d="M423.78 123.23C423.09 124.35 396.04 123.64 369.7 122.68C362.28 122.42 354.92 122.12 348.23 121.84C348.74 106.48 349.92 75.5302 354.37 70.8002C357.21 67.7702 361.45 66.0402 365.26 65.4802C365.58 65.4302 365.9 65.3902 366.21 65.3602C388.33 62.5802 426.85 59.3402 428.69 69.1302C431.27 82.7902 425.1 121.04 423.77 123.22L423.78 123.23Z" fill="#8BBEAD"/>
<g style="mix-blend-mode:multiply">
<path d="M369.71 122.68C362.29 122.42 354.93 122.12 348.24 121.84C348.75 106.48 349.93 75.5304 354.38 70.8004C357.22 67.7704 361.46 66.0404 365.27 65.4804C365.59 65.4304 365.91 65.3904 366.22 65.3604C369.75 65.0204 372.78 65.7304 373.8 67.3804C375.77 70.5604 370.76 113.84 369.71 122.68Z" fill="#8BBEAD"/>
</g>
<g style="mix-blend-mode:multiply">
<path d="M381.91 63.7204C381.91 63.7204 383.15 66.2004 384.43 65.1404C385.71 64.0804 385.51 59.9204 387.78 57.7704C390.05 55.6204 393.85 55.0804 397.72 55.7504C405.28 57.0504 400.4 64.1604 404.57 64.6604C406.75 64.9204 408.66 52.8604 395.77 52.2104C389.21 51.8804 380.66 55.6404 381.92 63.7304L381.91 63.7204Z" fill="#212B36"/>
</g>
<path d="M244.88 78.7807C244.88 78.7807 296.04 57.9007 317.22 107.601L313.69 108.481C313.69 108.481 302.52 64.6707 244.88 78.7807Z" fill="#6B1515"/>
<path d="M246.94 78.7804C253.95 89.9004 272.44 82.8204 280.73 77.9404C279.43 89.2704 298.54 100.66 308.06 94.9904C307.5 99.6004 310.5 104.77 314.28 107.3" stroke="#6B3B02" stroke-width="0.94" stroke-linecap="round" stroke-linejoin="round"/>
<path d="M376.31 104.67C374.05 80.9203 365.74 67.9003 341.44 88.6003C334.71 94.3403 327.81 101.16 319.37 104.33C312.76 106.81 296.14 107.93 289.29 108.77C270.18 111.12 269.66 141.43 282.34 156.79C289.27 165.18 325.06 141.23 345.65 135.82C364.83 130.78 378.51 127.84 376.31 104.67Z" fill="#F6B90C"/>
<g style="mix-blend-mode:screen">
<path d="M376.5 110.95C376.47 109.98 376.41 108.96 376.31 107.9C374.05 84.1499 365.74 71.1299 341.44 91.8299C334.7 97.5699 327.81 104.39 319.37 107.57C312.76 110.05 296.13 111.17 289.29 112.01C279.09 113.26 274.2 122.47 273.76 133.12C273.26 121.16 278.07 110.16 289.29 108.78C296.13 107.93 312.76 106.81 319.37 104.33C327.81 101.16 334.7 94.3299 341.44 88.5999C365.74 67.8999 374.05 80.9299 376.31 104.67C376.53 106.96 376.59 109.04 376.5 110.95Z" fill="#F6B90C"/>
</g>
<g style="mix-blend-mode:multiply" opacity="0.5">
<path d="M345.65 135.82C325.05 141.23 289.25 165.18 282.33 156.79C277.71 151.19 274.84 143.6 273.99 136.1C275.17 138.48 276.58 140.7 278.22 142.67C285.14 151.06 320.93 127.11 341.53 121.7C360.71 116.66 374.39 113.72 372.19 90.5498C372.01 88.6598 371.79 86.8398 371.53 85.0898C374.08 89.7798 375.54 96.5998 376.31 104.66C378.52 127.83 364.82 130.77 345.66 135.81L345.65 135.82Z" fill="#F6B90C"/>
</g>
<path d="M324.17 144.39C323.56 144.26 322.86 143.84 322.27 142.75C318.93 136.62 319.91 105.31 323.62 99.8002C324.04 99.1802 324.87 99.0202 325.47 99.4402C326.07 99.8602 326.22 100.71 325.8 101.33C324.39 103.42 323.15 112.55 322.91 122.57C322.62 134.39 323.82 140.79 324.79 141.7C325.45 141.73 326 142.27 326.04 142.97C326.08 143.72 325.52 144.37 324.79 144.42C324.6 144.43 324.4 144.42 324.18 144.38L324.17 144.39Z" fill="#B52424"/>
<path d="M368.1 98.9601C369.06 100.83 368.67 103.79 366.87 103.05C363.98 101.86 360.49 87.0201 366.14 86.6801C372.4 86.3101 372.74 104.61 372.6 107.68C372.32 113.59 371.81 122.26 365.92 119.99C357.65 116.79 350.04 90.8801 360.3 81.6201C360.3 81.6201 359.31 84.1201 359.46 89.6901C359.61 95.2601 363.07 107.75 366.84 106.25C370.6 104.74 368.1 98.9701 368.1 98.9701V98.9601Z" fill="#B56304"/>
<path d="M458.25 121.72C458.14 122.28 458.07 122.59 458.07 122.59C458.07 122.59 411.03 122.59 405.73 123.77C400.44 124.94 378.53 127.59 378.53 127.59C378.53 127.59 378.24 126.02 377.82 123.41C375.97 112.07 371.64 81.2004 378.09 75.1004C386.24 67.4004 394.04 65.2304 399.79 64.0004C400 63.9604 400.24 63.9104 400.52 63.8604C410.06 62.2904 458.64 60.3504 463.21 68.9204C467.52 77.0104 459.59 115.42 458.24 121.71L458.25 121.72Z" fill="#FF8C05"/>
<g style="mix-blend-mode:screen" opacity="0.5">
<path d="M458.25 121.72C456.23 121.72 452.61 121.72 448.16 121.76C450.8 108.65 456.24 78.5801 452.35 71.3601C448.77 64.7201 419.84 64.0601 400.78 64.8601C400.7 64.5201 400.61 64.1801 400.53 63.8701C410.07 62.3001 458.65 60.3601 463.22 68.9301C467.53 77.0201 459.6 115.43 458.25 121.72Z" fill="#FF8C05"/>
</g>
<g style="mix-blend-mode:multiply" opacity="0.6">
<path d="M403.74 125.171C403.74 125.171 392.18 123.191 377.81 123.411C375.96 112.071 371.63 81.2007 378.08 75.1007C379.8 73.4807 381.5 72.1007 383.17 70.9407C384.48 70.0107 385.76 69.2207 387.02 68.5307C387.65 68.1907 388.27 67.8607 388.88 67.5707C388.97 67.5307 389.06 67.4807 389.14 67.4507C389.79 67.1407 390.43 66.8607 391.06 66.6007C391.41 66.4607 391.77 66.3207 392.12 66.1907C392.47 66.0607 392.82 65.9307 393.16 65.8107C393.18 65.8107 393.19 65.7907 393.2 65.7907C393.54 65.6807 393.86 65.5707 394.19 65.4607C394.86 65.2407 395.52 65.0507 396.16 64.8807C396.41 64.8107 396.65 64.7507 396.87 64.6907C397.27 64.5807 397.66 64.5007 398.03 64.4107C398.25 64.3607 398.47 64.3007 398.68 64.2507C399.06 64.1707 399.42 64.0907 399.78 64.0107C400.87 64.1907 401.72 65.9007 402.36 68.6407C405.73 82.9007 403.73 125.171 403.73 125.171H403.74Z" fill="#FF8C05"/>
</g>
<g style="mix-blend-mode:multiply" opacity="0.6">
<path d="M494.33 335.7C432.33 351.22 403.47 344.21 376.81 337.92C357.45 333.35 334.92 331.62 314.57 331.6C287.52 331.59 290.96 331.53 264.3 332.01C237.13 332.49 235.84 321.28 242.74 310.25C282.03 288.83 327.09 276.65 375 276.65C390.77 276.65 406.23 277.97 421.27 280.51C448.82 285.14 474.98 293.84 499.11 305.98C505.13 309 511.02 312.24 516.78 315.69C521.62 323.01 516.7 330.1 494.33 335.71V335.7Z" fill="#6A7178"/>
</g>
<path d="M309.24 74.6104C309.89 74.5904 310.85 74.5604 312.06 74.6104C316.64 74.8104 321.13 75.6404 325.48 77.0904C327.74 77.8504 329.96 78.7104 332.14 79.6604C333.34 80.1904 334.53 80.7304 335.7 81.3104C337.96 82.4204 340.2 83.6004 342.35 84.9104C343.52 85.6204 344.68 86.3604 345.84 87.1204C346.97 87.9204 348.14 88.6604 349.24 89.5204C353.12 92.4204 356.77 95.5904 360.09 99.1204C361.04 100.13 361.96 101.16 362.85 102.23C365.89 105.86 369.03 109.79 371.23 114C372.67 116.76 373.9 119.76 374.88 122.71C374.97 122.99 375.49 124.64 375.16 124.87C374.8 125.13 374.02 123.76 373.89 123.55C372.59 121.56 371.51 119.38 370.31 117.31C369.11 115.26 367.81 113.25 366.47 111.29C365.67 110.12 364.84 108.96 363.96 107.84C361.05 104.13 358.01 100.61 354.52 97.4204C351.49 94.6504 348.32 92.0104 344.92 89.6904C340.43 86.6104 335.63 83.9704 330.61 81.8504C329.17 81.2404 327.71 80.6704 326.23 80.1604C324.72 79.6304 323.19 79.1504 321.65 78.7304C318.36 77.8204 315.31 76.0904 311.9 75.6204C308.38 75.1304 308.6 74.6304 309.24 74.6104Z" fill="#013020"/>
<path d="M446.94 108.151C446.71 106.751 446.45 105.361 446.15 104.001C445.1 99.2206 443.65 94.7306 441.9 90.4506C441.43 89.2006 440.84 88.0506 440.31 86.8506C439.75 85.6906 439.16 84.5506 438.56 83.4306C437.46 81.3806 436.23 79.4306 434.96 77.5606C434.3 76.5906 433.61 75.6406 432.91 74.7106C431.63 73.0206 430.28 71.4306 428.86 69.9306C426.12 67.0506 423 64.7806 419.53 63.1706C418.61 62.7406 417.85 62.4906 417.34 62.3106C416.83 62.1306 416.44 62.6006 418.96 64.2106C421.4 65.7606 423.02 68.5406 425.17 70.5106C426.18 71.4406 427.16 72.4106 428.1 73.4406C429.02 74.4506 429.91 75.5006 430.76 76.5906C433.73 80.3906 436.3 84.6806 438.45 89.3306C440.07 92.8506 441.39 96.6206 442.54 100.511C443.86 104.981 444.69 109.651 445.34 114.491C445.53 115.951 445.68 117.431 445.79 118.931C445.98 121.431 446.12 123.961 446.16 126.511C446.2 129.081 446.08 131.731 446.23 134.251C446.24 134.511 446.25 136.211 446.64 136.041C446.99 135.891 447.31 133.981 447.36 133.651C447.88 130.211 448.23 126.641 448.31 123.261C448.43 118.101 447.7 112.961 446.92 108.161L446.94 108.151Z" fill="#013020"/>
<path d="M377.51 63.071C376.76 63.041 375.66 62.981 374.26 63.071C368.97 63.401 363.79 64.791 358.77 67.231C356.16 68.501 353.6 69.941 351.08 71.551C349.7 72.431 348.32 73.351 346.97 74.321C344.36 76.181 341.77 78.161 339.29 80.361C337.94 81.551 336.6 82.791 335.26 84.071C333.96 85.411 332.6 86.661 331.34 88.101C326.86 92.971 322.64 98.291 318.81 104.221C317.72 105.911 316.66 107.651 315.63 109.431C312.12 115.531 308.49 122.111 305.95 129.191C304.29 133.821 302.87 138.861 301.73 143.811C301.62 144.281 301.03 147.051 301.4 147.441C301.82 147.881 302.71 145.581 302.87 145.231C304.38 141.891 305.61 138.221 307 134.751C308.38 131.311 309.88 127.941 311.43 124.651C312.36 122.681 313.32 120.741 314.33 118.861C317.7 112.631 321.2 106.731 325.23 101.381C328.73 96.721 332.39 92.301 336.31 88.401C341.5 83.241 347.04 78.791 352.83 75.241C354.5 74.221 356.18 73.271 357.89 72.391C359.63 71.501 361.4 70.701 363.18 69.991C366.97 68.461 370.5 65.561 374.44 64.771C378.51 63.951 378.26 63.111 377.51 63.071Z" fill="#013020"/>
<path d="M453.96 220.04C429.57 227.69 427.39 273.05 454.4 269.91C489.48 265.83 478.35 212.39 453.96 220.04Z" fill="#212B36"/>
<path d="M451.75 223.03C439.36 228.51 438.25 261 451.97 258.75C469.79 255.83 464.14 217.55 451.75 223.03Z" fill="#BABDC1"/>
<path d="M523.69 206.021C523.68 208.911 518.28 236.351 516.09 237.411C490.65 249.711 513.13 237.251 504.65 245.081C499.65 249.701 487.1 248.671 480.84 248.781C479.38 248.811 477.89 248.821 476.36 248.821C472.14 248.821 467.65 248.751 463.07 248.611C462.77 248.611 462.47 248.591 462.16 248.581C459.84 248.501 457.48 248.421 455.13 248.311C450.83 248.131 446.5 247.911 442.26 247.681C439.8 247.551 437.37 247.411 434.99 247.271C420.46 246.421 407.95 245.571 402.48 245.701C402.32 245.701 402.17 245.701 402.03 245.701C401.86 245.701 401.71 245.701 401.57 245.721C401.45 245.721 401.33 245.741 401.23 245.751C401.11 245.751 400.99 245.771 400.88 245.781C400.38 245.831 399.78 245.901 399.08 245.991C398.81 246.021 398.53 246.061 398.24 246.101C395.77 246.441 392.32 246.971 388.11 247.671C386.87 247.881 385.54 248.101 384.17 248.341C383.27 248.491 382.35 248.651 381.4 248.811C378.29 249.361 374.93 249.951 371.35 250.591C364.71 251.791 357.34 253.151 349.6 254.611C347.46 255.021 345.29 255.431 343.09 255.851C326.98 258.951 309.76 262.401 294.39 265.701C291.22 266.381 288.15 267.051 285.16 267.701C276.86 269.541 269.37 271.281 263.26 272.831C263.15 272.861 263.05 272.881 262.93 272.911C261.29 273.321 259.42 273.671 257.46 273.781C256.85 273.821 256.23 273.831 255.61 273.811C255.28 273.811 254.96 273.791 254.63 273.771C254.47 273.771 254.3 273.751 254.14 273.731C253.98 273.731 253.81 273.701 253.65 273.681C253.35 273.651 253.06 273.601 252.76 273.551C251.24 273.281 249.73 272.811 248.27 272.041C248.12 271.961 247.96 271.871 247.81 271.791C247.48 271.601 247.16 271.411 246.84 271.191C246.7 271.091 246.56 271.001 246.43 270.891C246.27 270.781 246.12 270.671 245.97 270.551C244.77 269.611 243.62 268.411 242.58 266.911C242.32 266.541 242.07 266.151 241.82 265.741C241.69 265.541 241.57 265.331 241.45 265.111C241.45 265.091 241.43 265.081 241.42 265.071C241.31 264.861 241.19 264.641 241.07 264.421C240.95 264.181 240.82 263.941 240.71 263.691C240.47 263.191 240.24 262.671 240.02 262.131C239.81 261.631 239.61 261.101 239.42 260.551C239.3 260.221 239.18 259.871 239.08 259.521C238.89 258.901 238.7 258.271 238.53 257.601C238.44 257.271 238.36 256.931 238.27 256.581L238.22 256.371C238.08 255.741 237.95 255.101 237.82 254.431C237.68 253.681 237.55 252.901 237.42 252.101C237.3 251.301 237.19 250.471 237.09 249.611C236.63 245.461 236.24 240.941 236.04 236.201C234.96 210.671 239.36 178.721 267.38 164.341C288.07 153.721 339.09 128.901 378.03 121.411C378.8 121.261 379.57 121.121 380.32 121.001C385.04 120.161 389.57 119.601 393.82 119.361C470.79 115.091 488.36 125.841 497.32 141.711C501.56 149.211 507.06 167.191 509.32 188.641C509.97 194.871 523.69 199.371 523.69 206.021Z" fill="#F6B90C"/>
<g style="mix-blend-mode:screen" opacity="0.5">
<path d="M467.38 236.981L467.34 239.391C467.31 241.281 467.29 243.101 467.3 244.811C467.3 243.361 467.33 241.841 467.34 240.271L467.38 237.861C467.38 237.081 467.4 236.311 467.4 235.511C467.4 236.001 467.4 236.491 467.38 236.971V236.981Z" fill="#6A7178"/>
</g>
<g style="mix-blend-mode:multiply" opacity="0.3">
<path d="M463.85 235.18L463.82 237.57C463.79 239.66 463.77 241.67 463.78 243.57C463.78 242.21 463.8 240.79 463.82 239.34L463.85 236.95C463.87 235.57 463.88 234.16 463.87 232.73C463.87 233.55 463.87 234.37 463.85 235.18ZM467.31 243.54C467.31 244.32 467.31 245.07 467.31 245.8C467.33 245.69 467.34 245.57 467.34 245.46C467.32 244.84 467.31 244.2 467.31 243.55V243.54Z" fill="#6A7178"/>
</g>
<path opacity="0.4" d="M331.07 135.61C331.07 135.78 331.04 135.95 331.03 136.12C325.15 214.63 333.98 250.5 333.98 250.5C333.98 250.5 327.21 252.56 305.75 256.09C284.28 259.62 288.4 265.49 284.87 232.56C281.62 202.25 287.32 160.59 288.27 154.05" stroke="#4D555E" stroke-width="0.94" stroke-miterlimit="10"/>
<path d="M525.52 243.951C524.31 246.851 522.33 249.491 520.39 250.561C517.43 252.181 514.08 253.011 510.81 253.771C503.05 255.581 494.91 256.121 486.95 255.741C480.56 255.431 474.69 254.991 470.61 254.791C469.51 254.741 468.56 254.701 467.74 254.681C464.93 254.631 460.59 254.631 455.2 254.681C452.34 254.711 449.17 254.751 445.77 254.811C436.25 254.981 424.9 255.271 413.25 255.691C412.01 255.731 410.78 255.781 409.54 255.831C402.82 256.091 396.05 256.401 389.52 256.751C384.63 257.021 379.88 257.311 375.38 257.631C368.81 258.101 362.78 258.631 357.65 259.221C354.79 259.551 352.21 259.901 349.97 260.261C349.92 260.261 349.88 260.281 349.83 260.291C344.93 261.101 321.05 264.971 296.92 269.011C293.68 269.561 290.44 270.101 287.23 270.641C279.24 272.001 271.51 273.321 264.73 274.521C262.72 274.871 260.8 275.221 258.98 275.541C258.35 275.661 257.75 275.771 257.14 275.881C237.17 279.521 235.78 270.921 240.65 265.851C240.88 265.601 241.21 265.361 241.61 265.111C243.32 264.041 246.5 262.941 250.82 261.801C253.21 261.171 255.94 260.551 258.97 259.901C259 259.901 259.02 259.901 259.04 259.881C261.92 259.271 265.06 258.661 268.41 258.051C272.76 257.251 277.47 256.451 282.42 255.661C285.52 255.171 288.72 254.661 291.99 254.171C293.09 254.011 294.21 253.841 295.33 253.681C298.09 253.271 300.89 252.871 303.73 252.461C316.15 250.701 329.07 248.991 341.16 247.431C343.57 247.121 345.95 246.811 348.28 246.511C348.54 246.481 348.8 246.451 349.05 246.411C351.47 246.101 353.84 245.801 356.16 245.501C364.14 244.481 371.4 243.541 377.46 242.731C377.72 242.691 377.97 242.661 378.22 242.621C381.43 242.191 384.68 241.771 387.92 241.381C389.22 241.221 390.52 241.071 391.83 240.921C394.4 240.631 397 240.351 399.6 240.071C403.73 239.651 407.88 239.261 412.04 238.921C413.2 238.821 414.35 238.721 415.52 238.641C426.24 237.791 437.03 237.221 447.81 236.951C449.77 236.891 451.73 236.841 453.69 236.821C460.82 236.701 467.93 236.711 475.01 236.871C475.89 236.891 476.77 236.911 477.66 236.931C480.9 237.011 484.14 237.121 487.38 237.281C487.77 237.281 488.16 237.311 488.55 237.321C491.86 237.481 512.56 236.261 515.71 235.311C517.57 234.751 519.3 233.251 521.29 233.271C527.47 233.321 527.59 239.001 525.54 243.921L525.52 243.951Z" fill="#6A7178"/>
<g style="mix-blend-mode:screen" opacity="0.4">
<path d="M526.64 239.77C525.9 238.43 516.23 239.93 514.65 240.16C501.98 242.02 490.39 240.87 486.22 240.58C483.1 240.36 479.97 240.16 476.83 240.01C476.46 239.99 476.09 239.97 475.72 239.97C472.65 239.81 469.57 239.7 466.49 239.62C465.65 239.59 464.81 239.58 463.98 239.56C457.26 239.4 450.5 239.38 443.73 239.51C441.87 239.54 440.01 239.58 438.14 239.64C427.76 239.92 417.59 240.49 407.48 241.33C406.38 241.42 405.28 241.52 404.18 241.61C400.23 241.95 396.29 242.34 392.37 242.76C389.9 243.03 387.44 243.32 384.99 243.61C383.75 243.76 382.51 243.91 381.28 244.07C378.2 244.47 375.12 244.88 372.07 245.31C371.83 245.35 371.59 245.38 371.35 245.42C365.6 246.23 358.7 247.17 351.12 248.19C348.92 248.49 346.67 248.79 344.37 249.1C344.13 249.13 343.89 249.17 343.64 249.2C341.43 249.5 339.17 249.81 336.87 250.12C325.39 251.68 313.11 253.38 301.32 255.15C298.63 255.56 295.97 255.96 293.35 256.37C292.28 256.54 291.23 256.71 290.17 256.86C287.06 257.35 284.03 257.86 281.08 258.35C276.38 259.14 271.91 259.94 267.78 260.74C264.6 261.35 261.61 261.96 258.88 262.57C258.85 262.57 258.84 262.57 258.81 262.59C255.93 263.23 253.34 263.86 251.07 264.49C246.98 265.63 243.95 266.73 242.33 267.8C241.95 268.05 241.64 268.29 241.42 268.54C240 270.1 239.14 271.99 239.18 273.76C237.5 271.46 238.36 268.28 240.54 265.89C240.76 265.64 241.07 265.4 241.45 265.15C243.07 264.08 246.1 262.98 250.19 261.84C252.46 261.21 255.05 260.59 257.93 259.94C257.96 259.94 257.97 259.94 258 259.92C260.73 259.31 263.72 258.7 266.9 258.09C271.03 257.29 275.5 256.49 280.2 255.7C283.15 255.21 286.18 254.7 289.29 254.21C290.34 254.05 291.4 253.88 292.47 253.72C295.09 253.31 297.75 252.91 300.44 252.5C312.23 250.74 324.5 249.03 335.99 247.47C338.28 247.16 340.54 246.85 342.76 246.55C343.01 246.52 343.25 246.49 343.49 246.45C345.79 246.14 348.04 245.84 350.24 245.54C357.82 244.52 364.72 243.58 370.47 242.77C370.72 242.73 370.96 242.7 371.19 242.66C374.24 242.23 377.32 241.81 380.4 241.42C381.63 241.26 382.87 241.11 384.11 240.96C386.56 240.67 389.02 240.39 391.49 240.11C395.42 239.69 399.35 239.3 403.3 238.96C404.4 238.86 405.5 238.76 406.6 238.68C416.78 237.83 427.03 237.26 437.26 236.99C439.12 236.93 440.98 236.88 442.84 236.86C449.61 236.74 456.36 236.75 463.09 236.91C463.93 236.93 464.77 236.95 465.6 236.97C468.68 237.05 471.76 237.16 474.83 237.32C475.2 237.32 475.57 237.35 475.94 237.36C479.08 237.52 482.05 236.99 485.16 237.21C488.26 237.43 506.52 236.19 509.63 236.17C514.65 236.14 516.95 233.83 522.47 233.39C524.98 233.19 526.24 237.04 526.64 239.76V239.77Z" fill="#6A7178"/>
</g>
<g style="mix-blend-mode:multiply" opacity="0.3">
<path d="M524.7 244.73C521.54 253.88 506.34 254.36 476.08 255.2C470.01 255.37 462.8 255 458.93 254.79C457.89 254.74 456.98 254.7 456.2 254.68C453.53 254.63 449.41 254.63 444.29 254.68C441.57 254.71 438.57 254.75 435.34 254.81C426.3 254.98 415.52 255.27 404.46 255.69C403.29 255.73 402.11 255.78 400.94 255.83C394.56 256.09 388.13 256.4 381.93 256.75C377.29 257.02 372.77 257.31 368.5 257.63C362.26 258.1 356.53 258.63 351.66 259.22C348.94 259.55 346.49 259.9 344.36 260.26C344.32 260.26 344.27 260.28 344.23 260.29C339.57 261.1 316.9 264.97 293.98 269.01C290.9 269.56 287.82 270.1 284.78 270.64C277.19 272 269.85 273.32 263.41 274.52C261.5 274.87 259.68 275.22 257.95 275.54C257.35 275.66 256.78 275.77 256.2 275.88C239.84 279.02 236.61 273.06 239.01 268.1C241.61 269.72 246.46 270.36 254.44 268.82C255.01 268.71 255.59 268.6 256.19 268.49C257.92 268.16 259.74 267.82 261.65 267.47C268.09 266.27 275.43 264.95 283.02 263.59C286.06 263.05 289.14 262.51 292.22 261.96C315.14 257.92 337.81 254.05 342.47 253.24C342.51 253.24 342.56 253.22 342.6 253.21C344.73 252.85 347.18 252.5 349.89 252.17C354.76 251.58 360.49 251.05 366.73 250.58C371 250.26 375.52 249.97 380.16 249.7C386.36 249.35 392.79 249.04 399.17 248.78C400.34 248.73 401.52 248.68 402.69 248.64C413.75 248.22 424.53 247.93 433.57 247.76C436.8 247.7 439.81 247.65 442.52 247.63C447.64 247.57 451.76 247.57 454.43 247.63C455.21 247.65 456.12 247.68 457.16 247.74C461.03 247.94 466.61 248.38 472.68 248.69C488.23 249.47 524.52 246.97 526.64 239.78C525.893 241.494 525.243 243.147 524.69 244.74L524.7 244.73Z" fill="#6A7178"/>
</g>
<path d="M384.17 248.36C384.1 248.99 384.01 249.6 383.9 250.22C383.51 252.48 382.87 254.69 381.93 256.77C378.79 263.77 372.46 269.3 362.07 270.5C352.89 271.57 347.08 267.03 344.37 260.28C343.82 258.9 343.39 257.42 343.1 255.88C343.1 255.85 343.08 255.84 343.08 255.81C342.52 252.88 342.43 249.73 342.77 246.55C343.97 235.52 350.48 224.14 361.63 220.64C373.76 216.84 382.61 228.14 384.12 240.96C384.41 243.4 384.44 245.9 384.16 248.36H384.17Z" fill="#212B36"/>
<path d="M359.4 235.72C346.45 239.78 345.29 263.86 359.63 262.19C378.25 260.02 372.35 231.65 359.4 235.72Z" fill="#BABDC1"/>
<path d="M359.94 243.001C354.2 244.801 353.68 255.481 360.04 254.741C368.3 253.781 365.68 241.191 359.94 243.001Z" fill="#E9EAEB"/>
<path d="M294.44 264.92C294.44 265.18 294.42 265.45 294.4 265.71C294.34 266.82 294.2 267.93 293.99 269.02C292.37 277.33 286.47 284.67 274.7 286.04C265.67 287.09 260.17 282.32 257.97 275.56C257.78 274.99 257.62 274.4 257.49 273.81C257.27 272.89 257.1 271.95 257 270.98C256.9 270.12 256.85 269.25 256.85 268.36C256.85 268.2 256.85 268.03 256.85 267.87C256.88 265.24 257.27 262.53 258.03 259.9C258.18 259.38 258.35 258.86 258.52 258.35C258.54 258.31 258.56 258.28 258.56 258.24C261.02 251.25 266.12 245.08 273.65 242.71C282.34 239.98 289.26 245.64 292.48 253.69C293.87 257.15 294.58 261.05 294.45 264.91L294.44 264.92Z" fill="#212B36"/>
<path d="M272.68 254.36C259.51 258.49 258.73 282.06 273.31 280.37C292.25 278.17 285.85 250.23 272.68 254.36Z" fill="#BABDC1"/>
<path d="M273.39 261.941C268 263.631 267.68 273.281 273.65 272.591C281.41 271.691 278.78 260.251 273.39 261.941Z" fill="#E9EAEB"/>
<path d="M358.36 215.22C332.24 224.32 331.58 259.33 343.1 255.8C342.24 248.74 343.89 232.48 359.08 229.48C376.21 226.1 381.69 238.15 381.4 250.5C399.83 250.79 394.65 202.57 358.36 215.21V215.22Z" fill="#BABDC1"/>
<g style="mix-blend-mode:screen" opacity="0.5">
<path d="M391.63 239.161C389.41 227.351 378.85 215.541 358.66 222.581C344.21 227.621 337.55 240.591 336.44 250.561C334.17 240.991 339.92 221.651 358.37 215.221C382.85 206.691 393.18 225.881 391.64 239.161H391.63Z" fill="#E9EAEB"/>
</g>
<path d="M269.91 236.001C245.97 243.691 246.67 274.301 257.1 270.951C256.11 264.981 257.16 251.111 270.97 248.101C286.54 244.711 291.88 254.791 291.96 265.301C308.82 264.991 300.84 226.071 269.91 236.011V236.001Z" fill="#BABDC1"/>
<g style="mix-blend-mode:screen" opacity="0.5">
<path d="M300.54 256.261C298.57 246.131 288.33 235.181 270.2 241.001C256.79 245.301 251.11 256.791 250.55 265.491C248.79 256.921 253.7 241.211 269.91 236.001C291.11 229.191 301.53 245.331 300.54 256.261Z" fill="#E9EAEB"/>
</g>
<path d="M280.69 172.34C279.67 180.15 279.45 206.23 277.38 207.13C269.41 210.61 255.5 217.29 248.37 220.15C248.37 220.15 248.35 220.15 248.34 220.15C247.22 220.58 246.11 220.26 245.47 218.92C245.11 218.17 244.91 217.1 244.93 215.67C245.18 203.59 250.32 187.86 254.29 184.33C257.21 181.74 271.08 173.19 277.46 171.42C279.18 170.94 280.36 170.96 280.63 171.72C280.7 171.89 280.72 172.09 280.68 172.34H280.69Z" fill="#6BC9FF"/>
<path d="M326.86 157.731C326.84 157.901 326.83 158.061 326.82 158.221C326.65 160.111 326.54 161.981 326.47 163.851C326.21 169.881 326.33 175.841 326.2 182.001C326.04 190.301 323.22 190.951 320.7 191.851C316.01 193.531 309.73 195.821 303.77 197.901C302.13 198.481 300.51 199.051 298.97 199.581C296.69 200.361 294.57 201.061 292.71 201.641C292.68 201.641 292.66 201.661 292.63 201.671C291.37 202.071 289.9 202.461 288.73 201.931C287.43 201.371 286.48 199.731 286.5 195.861C286.55 184.451 286.5 170.411 290.01 167.591C296.26 161.351 310.55 155.201 321.04 151.451C321.83 151.171 322.5 151.001 323.1 150.911C324.49 150.721 325.41 151.011 326.01 151.591C327.46 152.971 327.01 156.041 326.85 157.741L326.86 157.731Z" fill="#6BC9FF"/>
<path d="M377.95 177.651C371.52 179.101 360.86 181.621 351.83 183.741C350.31 184.101 348.84 184.451 347.45 184.771C346.33 185.031 345.25 185.281 344.24 185.511C342.76 185.851 341.52 185.921 340.47 185.791C339.24 185.651 338.29 185.221 337.56 184.621C335.85 183.231 335.34 180.921 335.16 179.121C334.39 171.591 335.13 161.871 335.4 154.771C335.61 149.201 339.41 146.501 341.19 145.671C348.88 142.071 360.11 138.241 369.46 137.251C370.67 137.121 371.85 137.031 372.99 137.001C375.28 136.951 377.4 137.111 379.24 137.551C379.95 137.711 380.62 137.921 381.25 138.181C381.5 138.281 381.75 138.381 381.98 138.501C390.43 142.351 390.38 150.551 391.61 159.691C393.34 172.481 390.73 174.791 377.94 177.661L377.95 177.651Z" fill="#6BC9FF"/>
<path d="M280.69 172.34C279.67 180.15 279.45 206.23 277.38 207.13C269.41 210.61 255.5 217.29 248.37 220.15C248.37 220.15 248.35 220.15 248.34 220.15C247.22 220.58 246.11 220.26 245.47 218.92C245.11 218.17 244.91 217.1 244.93 215.67C245.18 203.59 250.32 187.86 254.29 184.33C257.21 181.74 271.08 173.19 277.46 171.42C279.18 170.94 280.36 170.96 280.63 171.72C280.7 171.89 280.72 172.09 280.68 172.34H280.69Z" fill="#6BC9FF"/>
<path d="M326.86 157.731C326.84 157.901 326.83 158.061 326.82 158.221C326.65 160.111 326.54 161.981 326.47 163.851C326.21 169.881 326.33 175.841 326.2 182.001C326.04 190.301 323.22 190.951 320.7 191.851C316.01 193.531 309.73 195.821 303.77 197.901C302.13 198.481 300.51 199.051 298.97 199.581C296.69 200.361 294.57 201.061 292.71 201.641C292.68 201.641 292.66 201.661 292.63 201.671C291.37 202.071 289.9 202.461 288.73 201.931C287.43 201.371 286.48 199.731 286.5 195.861C286.55 184.451 286.5 170.411 290.01 167.591C296.26 161.351 310.55 155.201 321.04 151.451C321.83 151.171 322.5 151.001 323.1 150.911C324.49 150.721 325.41 151.011 326.01 151.591C327.46 152.971 327.01 156.041 326.85 157.741L326.86 157.731Z" fill="#6BC9FF"/>
<path d="M377.95 177.651C371.52 179.101 360.86 181.621 351.83 183.741C350.31 184.101 348.84 184.451 347.45 184.771C346.33 185.031 345.25 185.281 344.24 185.511C342.76 185.851 341.52 185.921 340.47 185.791C339.24 185.651 338.29 185.221 337.56 184.621C335.85 183.231 335.34 180.921 335.16 179.121C334.39 171.591 335.13 161.871 335.4 154.771C335.61 149.201 339.41 146.501 341.19 145.671C348.88 142.071 360.11 138.241 369.46 137.251C370.67 137.121 371.85 137.031 372.99 137.001C375.28 136.951 377.4 137.111 379.24 137.551C379.95 137.711 380.62 137.921 381.25 138.181C381.5 138.281 381.75 138.381 381.98 138.501C390.43 142.351 390.38 150.551 391.61 159.691C393.34 172.481 390.73 174.791 377.94 177.661L377.95 177.651Z" fill="#6BC9FF"/>
<g style="mix-blend-mode:multiply">
<path d="M276.49 171.73C269.51 174.6 258.61 181.41 256.06 183.67C252.09 187.2 246.95 202.94 246.7 215.01C246.67 216.45 246.88 217.52 247.24 218.26C247.79 219.41 248.68 219.8 249.62 219.62C249.18 219.81 248.76 219.98 248.37 220.14C248.37 220.14 248.35 220.14 248.34 220.14C247.22 220.57 246.11 220.25 245.47 218.91C245.11 218.16 244.91 217.09 244.93 215.66C245.18 203.58 250.32 187.85 254.29 184.32C257.07 181.85 269.76 173.99 276.48 171.71L276.49 171.73ZM305.54 197.23C303.9 197.81 302.28 198.38 300.74 198.91C298.46 199.69 296.34 200.39 294.48 200.98C294.45 200.98 294.43 201 294.4 201.01C293.14 201.41 291.67 201.8 290.5 201.27C289.2 200.71 288.25 199.07 288.27 195.2C288.32 183.79 288.27 169.75 291.78 166.93C297.22 161.5 308.79 156.12 318.62 152.34C308.45 156.12 295.8 161.82 290.02 167.59C286.5 170.41 286.56 184.46 286.51 195.86C286.49 199.73 287.45 201.37 288.74 201.93C289.91 202.45 291.38 202.06 292.64 201.67C292.67 201.67 292.69 201.65 292.72 201.64C294.57 201.06 296.7 200.35 298.98 199.58C300.52 199.05 302.14 198.49 303.78 197.9C309.73 195.82 316.02 193.52 320.71 191.85C321.23 191.66 321.77 191.49 322.29 191.25C317.63 192.93 311.42 195.18 305.55 197.24L305.54 197.23ZM379.71 176.99C373.28 178.44 362.62 180.96 353.59 183.08C352.07 183.44 350.6 183.79 349.21 184.11C348.09 184.37 347.01 184.62 346 184.85C344.52 185.19 343.27 185.26 342.23 185.13C341 184.99 340.05 184.56 339.32 183.96C337.61 182.57 337.1 180.25 336.92 178.46C336.15 170.93 336.89 161.21 337.16 154.11C337.37 148.54 341.17 145.84 342.96 145.01C344.81 144.15 346.87 143.26 349.06 142.41C346.21 143.46 343.54 144.58 341.19 145.67C339.41 146.51 335.61 149.2 335.4 154.77C335.13 161.87 334.39 171.58 335.16 179.12C335.34 180.91 335.85 183.22 337.56 184.62C338.29 185.22 339.24 185.65 340.47 185.79C341.51 185.92 342.76 185.85 344.24 185.51C345.26 185.28 346.33 185.02 347.45 184.77C348.84 184.44 350.32 184.1 351.83 183.74C360.86 181.62 371.52 179.1 377.95 177.65C381.28 176.9 383.92 176.2 385.97 175.33C384.23 175.91 382.16 176.44 379.71 176.99Z" fill="#6BC9FF"/>
</g>
<path d="M498.8 183.61C487.44 182.99 474.01 182.69 461.46 182.34C456.43 182.2 451.55 182.05 446.99 181.87C441.3 181.65 436.12 181.38 431.83 181.03C427.37 180.67 423.86 180.21 421.69 179.6C420.77 179.34 420.1 179.06 419.71 178.75C414.33 174.51 408.83 136.41 410.31 132.88C412.51 127.6 437.1 127.11 457.43 129.05C461.23 129.42 464.87 129.87 468.2 130.38C471.28 130.87 474.08 131.4 476.48 131.99C478.62 132.52 480.61 133.41 482.44 134.6C485.99 136.89 488.98 140.28 491.43 144.23C501.08 159.74 502.61 183.79 498.82 183.59L498.8 183.61Z" fill="#6BC9FF"/>
<g style="mix-blend-mode:multiply">
<path d="M498.8 183.61C487.44 182.99 474.01 182.69 461.46 182.34C456.43 182.2 451.55 182.05 446.99 181.87C441.3 181.65 436.12 181.38 431.83 181.03C430.18 180.9 428.66 180.75 427.29 180.59C428.21 180.68 429.18 180.77 430.19 180.85C434.48 181.19 439.66 181.46 445.35 181.68C449.91 181.86 454.79 182.01 459.81 182.15C472.36 182.5 485.79 182.8 497.15 183.42C500.94 183.62 499.41 159.57 489.76 144.06C487.31 140.11 484.33 136.72 480.77 134.43C478.93 133.24 476.95 132.36 474.81 131.82C472.42 131.23 469.61 130.7 466.54 130.21C464.11 129.84 461.52 129.5 458.82 129.2C462.11 129.54 465.26 129.94 468.17 130.39C471.25 130.88 474.05 131.41 476.45 132C478.59 132.53 480.58 133.42 482.41 134.61C485.96 136.9 488.95 140.29 491.4 144.24C501.05 159.75 502.58 183.8 498.79 183.6L498.8 183.61Z" fill="#6BC9FF"/>
</g>
<path d="M444.4 225.651C451.066 225.651 456.47 219.53 456.47 211.981C456.47 204.431 451.066 198.311 444.4 198.311C437.734 198.311 432.33 204.431 432.33 211.981C432.33 219.53 437.734 225.651 444.4 225.651Z" fill="#4D555E"/>
<path d="M447.04 225.651C453.706 225.651 459.11 219.53 459.11 211.981C459.11 204.431 453.706 198.311 447.04 198.311C440.374 198.311 434.97 204.431 434.97 211.981C434.97 219.53 440.374 225.651 447.04 225.651Z" fill="#6A7178"/>
<path d="M447.04 222.97C452.397 222.97 456.74 218.05 456.74 211.98C456.74 205.911 452.397 200.99 447.04 200.99C441.683 200.99 437.34 205.911 437.34 211.98C437.34 218.05 441.683 222.97 447.04 222.97Z" fill="#FBDF8F"/>
<path d="M510.45 212.861C510.45 219.191 505.87 224.331 500.23 224.331C494.59 224.331 490.01 219.201 490.01 212.861C490.01 206.521 494.59 201.391 500.23 201.391C505.87 201.391 510.45 206.521 510.45 212.861Z" fill="#4D555E"/>
<path d="M512.21 212.861C512.21 219.191 507.63 224.331 501.99 224.331C496.35 224.331 491.77 219.201 491.77 212.861C491.77 206.521 496.35 201.391 501.99 201.391C507.63 201.391 512.21 206.521 512.21 212.861Z" fill="#6A7178"/>
<path d="M510.11 212.86C510.11 217.89 506.47 221.98 501.99 221.98C497.51 221.98 493.87 217.9 493.87 212.86C493.87 207.82 497.51 203.74 501.99 203.74C506.47 203.74 510.11 207.82 510.11 212.86Z" fill="#FBDF8F"/>
<g style="mix-blend-mode:multiply" opacity="0.3">
<path d="M454.6 153.811C455.43 154.501 449.69 164.501 448.22 166.701C442.5 175.281 438.81 182.871 437.05 181.551C435.28 180.231 453.78 153.121 454.6 153.811ZM467.93 182.731C469.7 184.051 473.38 176.461 479.1 167.881C480.57 165.671 486.31 155.681 485.48 154.991C484.66 154.301 466.16 181.411 467.93 182.731Z" fill="#6A7178"/>
</g>
<path d="M456.37 153.811C457.19 154.501 451.46 164.501 449.99 166.701C444.27 175.281 440.58 182.871 438.82 181.551C437.05 180.231 455.55 153.121 456.37 153.811ZM469.69 182.731C471.45 184.051 475.14 176.461 480.86 167.881C482.33 165.671 488.06 155.681 487.24 154.991C486.41 154.301 467.92 181.411 469.69 182.731Z" fill="#6A7178"/>
<g style="mix-blend-mode:screen" opacity="0.6">
<path d="M468.18 130.39L431.82 181.03C427.36 180.67 423.85 180.21 421.68 179.6C425.7 173.12 446.89 143.63 457.41 129.05C461.21 129.42 464.85 129.87 468.18 130.38V130.39ZM448.77 122.15L412.41 172.79C407.95 172.43 410.32 173.15 408.16 172.54C412.18 166.06 433.37 136.57 443.89 121.99C447.69 122.36 445.46 121.63 448.78 122.15H448.77ZM482.42 134.61L446.98 181.87C451.54 182.05 456.42 182.2 461.45 182.34L491.4 144.25C488.95 140.3 485.96 136.91 482.41 134.62L482.42 134.61Z" fill="#6BC9FF"/>
</g>
<g style="mix-blend-mode:screen" opacity="0.6">
<path d="M381.25 138.181C380.63 137.921 379.96 137.711 379.24 137.551L347.44 184.771C348.83 184.441 350.31 184.101 351.82 183.741L381.98 138.491C381.74 138.381 381.49 138.271 381.25 138.171V138.181ZM369.46 137.251L337.55 184.621C338.28 185.221 339.23 185.651 340.46 185.791L372.99 137.001C371.85 137.031 370.67 137.111 369.46 137.251ZM298.98 199.571C300.52 199.041 302.14 198.481 303.78 197.891L326.48 163.851C326.55 161.981 326.66 160.111 326.83 158.221L298.98 199.571ZM323.11 150.901L288.74 201.921C289.91 202.441 291.38 202.051 292.64 201.661L326.02 151.581C325.42 151.001 324.5 150.711 323.11 150.901ZM277.47 171.431L245.47 218.941C246.1 220.281 247.22 220.601 248.34 220.171L280.63 171.731C280.37 170.971 279.18 170.951 277.46 171.431H277.47Z" fill="#6BC9FF"/>
</g>
<g style="mix-blend-mode:multiply">
<path d="M413.93 238.111C411.57 239.521 409.81 242.121 409.27 245.011C408.47 249.231 409.35 253.771 411.12 254.841C404.74 255.101 388.12 256.401 381.92 256.751C378.78 263.751 372.45 269.281 362.06 270.481C352.88 271.551 347.07 267.011 344.36 260.261C344.32 260.261 344.27 260.281 344.23 260.291C339.57 261.101 316.9 264.971 293.98 269.011C292.36 277.321 286.46 284.661 274.69 286.031C265.66 287.081 260.16 282.311 257.96 275.551C257.36 275.671 256.79 275.781 256.21 275.891C237.24 279.531 235.92 270.931 240.55 265.861C240.77 265.611 241.08 265.371 241.46 265.121C241.46 265.101 241.44 265.091 241.43 265.081C241.32 264.871 241.2 264.651 241.08 264.431C240.96 264.191 240.83 263.951 240.72 263.701C240.48 263.201 240.25 262.681 240.03 262.141C239.82 261.641 239.62 261.111 239.43 260.561C239.31 260.231 239.19 259.881 239.09 259.531C238.89 258.911 238.7 258.281 238.54 257.611C238.45 257.281 238.37 256.941 238.28 256.591L238.23 256.381C238.09 255.751 237.96 255.111 237.83 254.441C237.69 253.691 237.56 252.911 237.43 252.111C237.31 251.311 237.2 250.481 237.1 249.621C236.64 245.471 236.25 240.951 236.05 236.211C234.97 210.681 239.37 178.731 267.39 164.351C272.63 161.661 279.82 158.051 288.27 154.061C300.58 148.231 315.56 141.551 331.07 135.611C346.92 129.541 363.34 124.251 378.03 121.421C378.8 121.271 379.57 121.131 380.32 121.011C397.55 129.741 403.83 156.491 405.3 184.211C405.59 189.781 421.43 193.831 421.38 199.351C421.27 213.461 415.1 227.631 413.92 238.131L413.93 238.111Z" fill="#EFEFEF"/>
</g>
<path d="M177.37 209.14C177.37 209.14 178.51 208.04 180.53 206.16C181.04 205.69 181.6 205.17 182.21 204.6C182.51 204.32 182.83 204.02 183.16 203.72C183.51 203.44 183.87 203.14 184.24 202.84C185.74 201.63 187.43 200.25 189.3 198.78C191.13 197.25 193.28 195.84 195.5 194.26C197.74 192.72 200.03 190.98 202.59 189.47C205.11 187.9 207.71 186.28 210.36 184.63C213.04 183.04 215.84 181.56 218.59 180C219.98 179.24 221.37 178.48 222.75 177.73C224.14 176.98 225.57 176.33 226.96 175.63C229.77 174.28 232.53 172.94 235.2 171.65C236.52 170.98 237.88 170.44 239.2 169.89C240.52 169.34 241.81 168.81 243.07 168.29C245.58 167.26 247.96 166.29 250.16 165.39C252.38 164.57 254.46 163.91 256.29 163.29C258.12 162.68 259.71 162.15 261.02 161.71C263.64 160.84 265.15 160.37 265.15 160.37C265.15 160.37 263.69 160.98 261.14 162.06C258.59 163.11 254.94 164.6 250.57 166.4C248.42 167.39 246.1 168.46 243.64 169.59C242.41 170.15 241.14 170.73 239.85 171.32C238.56 171.92 237.22 172.47 235.91 173.17C233.28 174.5 230.55 175.87 227.79 177.27C226.41 177.97 224.99 178.63 223.62 179.38C222.25 180.14 220.87 180.9 219.5 181.67C216.75 183.2 213.96 184.65 211.28 186.21C208.62 187.8 206.01 189.36 203.48 190.88C200.92 192.35 198.58 193.98 196.3 195.43C195.16 196.17 194.06 196.88 192.99 197.57C191.9 198.24 190.91 198.95 189.96 199.64C188.05 201.02 186.28 202.26 184.71 203.36C184.32 203.64 183.94 203.91 183.57 204.17C183.22 204.45 182.88 204.73 182.56 204.99C181.91 205.51 181.32 206 180.78 206.43C178.63 208.17 177.38 209.14 177.38 209.14H177.37Z" fill="white"/>
<path d="M161.03 239.03C161.03 239.03 162.08 237.85 163.96 235.82C164.43 235.31 164.95 234.75 165.52 234.14C165.8 233.84 166.1 233.52 166.4 233.19C166.73 232.88 167.06 232.56 167.41 232.23C168.81 230.91 170.4 229.42 172.16 227.81C173.87 226.15 175.92 224.59 178.01 222.85C180.13 221.15 182.29 219.25 184.73 217.55C187.13 215.8 189.6 213.99 192.12 212.16C194.67 210.38 197.36 208.69 199.99 206.94C201.32 206.08 202.65 205.22 203.97 204.37C205.3 203.52 206.68 202.77 208.02 201.97C210.72 200.41 213.37 198.88 215.94 197.4C217.21 196.64 218.53 196 219.8 195.35C221.08 194.71 222.32 194.08 223.54 193.47C225.97 192.26 228.27 191.11 230.4 190.06C232.56 189.08 234.58 188.27 236.35 187.52C238.13 186.78 239.68 186.13 240.95 185.6C243.5 184.54 244.97 183.96 244.97 183.96C244.97 183.96 243.56 184.68 241.1 185.93C238.63 187.16 235.1 188.92 230.87 191.03C228.8 192.17 226.56 193.41 224.19 194.72C223 195.37 221.78 196.04 220.54 196.72C219.3 197.41 218 198.06 216.75 198.85C214.22 200.37 211.61 201.94 208.95 203.53C207.62 204.33 206.26 205.09 204.94 205.94C203.63 206.8 202.32 207.66 201 208.53C198.37 210.25 195.69 211.91 193.14 213.66C190.6 215.44 188.11 217.19 185.7 218.89C183.25 220.54 181.04 222.34 178.87 223.96C177.79 224.78 176.74 225.57 175.73 226.34C174.69 227.09 173.76 227.87 172.86 228.63C171.06 230.14 169.38 231.51 167.9 232.73C167.53 233.04 167.17 233.33 166.83 233.62C166.5 233.93 166.19 234.22 165.88 234.51C165.27 235.08 164.72 235.6 164.21 236.08C162.19 237.97 161.02 239.03 161.02 239.03H161.03Z" fill="white"/>
<path d="M475.77 222.78C475.77 222.78 476.87 222.56 478.79 222.18C479.27 222.09 479.8 221.99 480.38 221.88C480.96 221.76 481.59 221.65 482.27 221.59C483.63 221.43 485.16 221.24 486.83 221.07C488.51 220.85 490.33 220.83 492.25 220.71C494.17 220.63 496.21 220.44 498.3 220.5C500.4 220.5 502.58 220.52 504.78 220.53C506.99 220.58 509.22 220.75 511.46 220.86C512.58 220.93 513.7 221 514.81 221.07C515.92 221.14 517.03 221.29 518.12 221.4C520.31 221.65 522.47 221.89 524.56 222.12C526.65 222.35 528.64 222.78 530.54 223.08C532.43 223.41 534.23 223.72 535.88 224.01C537.52 224.35 539.02 224.74 540.34 225.06C541.66 225.38 542.82 225.66 543.77 225.9C545.67 226.38 546.75 226.65 546.75 226.65C546.75 226.65 545.65 226.47 543.71 226.15C541.78 225.81 539.04 225.33 535.74 224.76C534.08 224.54 532.28 224.3 530.38 224.05C529.43 223.92 528.45 223.8 527.46 223.66C526.46 223.54 525.45 223.36 524.41 223.29C522.33 223.09 520.18 222.89 518 222.68C516.91 222.58 515.81 222.44 514.7 222.37C513.59 222.31 512.48 222.25 511.37 222.19C509.15 222.07 506.92 221.89 504.73 221.82C502.54 221.77 500.38 221.72 498.29 221.68C496.2 221.59 494.18 221.68 492.27 221.68C490.36 221.72 488.54 221.68 486.88 221.82C485.21 221.94 483.68 222.01 482.33 222.08C481.65 222.1 481.02 222.16 480.43 222.24C479.84 222.31 479.31 222.38 478.82 222.43C476.87 222.65 475.76 222.77 475.76 222.77L475.77 222.78Z" fill="white"/>
<path d="M486.01 212.751C486.01 212.751 487.58 212.541 490.32 212.211C491.01 212.131 491.77 212.041 492.59 211.951C493 211.901 493.44 211.851 493.88 211.801C494.33 211.781 494.79 211.751 495.27 211.731C497.2 211.641 499.37 211.531 501.75 211.451C504.13 211.301 506.7 211.441 509.42 211.481C512.14 211.571 515.02 211.521 517.97 211.811C520.93 212.041 523.99 212.271 527.09 212.511C530.19 212.811 533.32 213.271 536.47 213.651C538.04 213.861 539.61 214.071 541.17 214.281C542.73 214.501 544.27 214.821 545.8 215.081C548.86 215.651 551.88 216.211 554.79 216.751C556.25 216.991 557.67 217.361 559.06 217.701C560.45 218.041 561.8 218.371 563.12 218.701C565.76 219.361 568.25 219.981 570.55 220.551C572.83 221.201 574.9 221.901 576.73 222.481C578.56 223.071 580.16 223.581 581.48 224.001C584.11 224.851 585.6 225.361 585.6 225.361C585.6 225.361 584.06 224.991 581.37 224.351C578.69 223.681 574.87 222.731 570.28 221.591C567.96 221.121 565.46 220.601 562.8 220.061C561.48 219.781 560.12 219.501 558.73 219.211C557.34 218.931 555.93 218.581 554.47 218.371C551.56 217.881 548.55 217.381 545.5 216.871C543.97 216.621 542.44 216.311 540.89 216.111C539.34 215.911 537.77 215.721 536.21 215.521C533.09 215.121 529.98 214.641 526.9 214.321C523.82 214.031 520.78 213.741 517.85 213.471C514.91 213.141 512.07 213.071 509.37 212.891C508.02 212.811 506.71 212.741 505.44 212.661C504.17 212.551 502.94 212.541 501.77 212.541C499.42 212.521 497.25 212.481 495.33 212.441C494.85 212.441 494.38 212.421 493.94 212.421C493.49 212.441 493.06 212.461 492.64 212.481C491.81 212.521 491.04 212.561 490.35 212.591C487.59 212.721 486.01 212.761 486.01 212.761V212.751Z" fill="white"/>
</g>
</svg>
