<svg width="108" height="106" viewBox="0 0 108 106" fill="none" xmlns="http://www.w3.org/2000/svg">
<path d="M48.5419 100.692C22.2444 100.692 0.849609 79.2975 0.849609 52.9999C0.849609 26.7024 22.2444 5.30762 48.5419 5.30762C55.5567 5.30762 62.3143 6.79609 68.6268 9.73179C69.821 10.2872 70.339 11.7053 69.7836 12.8995C69.2282 14.0935 67.8103 14.6119 66.6159 14.0563C60.9379 11.4156 54.8569 10.0768 48.5419 10.0768C24.8741 10.0768 5.61884 29.3321 5.61884 52.9999C5.61884 76.6677 24.8741 95.923 48.5419 95.923C72.2097 95.923 91.465 76.6677 91.465 52.9999C91.465 45.8072 89.6522 38.6937 86.2231 32.4281C85.591 31.2727 86.015 29.8236 87.1703 29.1915C88.3249 28.5591 89.7743 28.983 90.4069 30.1384C94.2192 37.1038 96.2345 45.0093 96.2345 52.9999C96.2342 79.2975 74.8397 100.692 48.5419 100.692Z" fill="#919EAB"/>
<path d="M48.5418 91.1541C47.2248 91.1541 46.1572 90.0863 46.1572 88.7695C46.1572 87.4527 47.2248 86.3849 48.5418 86.3849C66.9501 86.3849 81.9265 71.4085 81.9265 53.0003C81.9265 48.2513 80.9504 43.6655 79.0253 39.3696C78.4869 38.1677 79.0246 36.7567 80.2262 36.2183C81.4288 35.6799 82.839 36.2176 83.3777 37.4192C85.5792 42.3325 86.6957 47.5746 86.6957 53C86.6957 74.0385 69.5799 91.1541 48.5418 91.1541Z" fill="#637381"/>
<path d="M27.0764 84.0003C26.5778 84.0003 26.0751 83.8446 25.6459 83.5219C21.0124 80.0406 17.1736 75.48 14.5443 70.3329C11.7865 64.9346 10.3882 59.1027 10.3882 53C10.3882 31.962 27.504 14.8462 48.542 14.8462C59.0706 14.8462 68.8754 19.0429 76.1494 26.6632C77.0587 27.6158 77.0236 29.1253 76.0712 30.0345C75.1188 30.9438 73.6093 30.909 72.6996 29.9561C66.3344 23.2877 57.7548 19.6154 48.542 19.6154C30.1338 19.6154 15.1574 34.5918 15.1574 53C15.1574 63.5982 20.0244 73.3334 28.5105 79.7089C29.5636 80.4999 29.7758 81.9948 28.9846 83.0479C28.5163 83.6714 27.8006 84 27.0764 84.0003Z" fill="#637381"/>
<path d="M21.1189 0.538574C23.0958 0.538574 24.6958 2.14104 24.6958 4.1155C24.6958 6.08996 23.0958 7.69242 21.1189 7.69242C19.1445 7.69242 17.542 6.08996 17.542 4.1155C17.542 2.14104 19.1447 0.538574 21.1189 0.538574Z" fill="#212B36"/>
<path d="M6.8113 98.3076C8.78814 98.3076 10.3882 99.9101 10.3882 101.885C10.3882 103.859 8.78814 105.461 6.8113 105.461C4.83684 105.461 3.23438 103.859 3.23438 101.885C3.23438 99.9101 4.83707 98.3076 6.8113 98.3076Z" fill="#212B36"/>
<path d="M96.2346 88.7695C98.8696 88.7695 101.004 90.9038 101.004 93.5388C101.004 96.1738 98.8696 98.308 96.2346 98.308C93.6019 98.308 91.4653 96.1738 91.4653 93.5388C91.4653 90.9038 93.6019 88.7695 96.2346 88.7695Z" fill="#212B36"/>
<path d="M105.403 5.76306C107.733 8.09044 107.733 11.8653 105.403 14.1927L88.3153 31.2832L81.2019 38.3941L60.7202 58.8756L52.2909 67.3076L43.8589 58.8756L31.2133 46.23C30.0496 45.0663 29.4653 43.5401 29.4653 42.0164C29.4653 40.4902 30.0496 38.9641 31.2133 37.8004C33.5406 35.4706 37.3155 35.4706 39.6429 37.8004L52.2909 50.446L96.9735 5.76306C98.1372 4.59698 99.6634 4.01514 101.187 4.01514C102.713 4.01514 104.239 4.59698 105.403 5.76306Z" fill="#03724D"/>
</svg>
