<svg width="126" height="100" viewBox="0 0 126 100" fill="none" xmlns="http://www.w3.org/2000/svg">
<path fill-rule="evenodd" clip-rule="evenodd" d="M63 79.1128L109.71 79.9486L125.188 97.1039L63 99.0808L0.8125 97.1039L16.2898 79.9486L63 79.1128Z" fill="#A7B1BC"/>
<path fill-rule="evenodd" clip-rule="evenodd" d="M62.9998 97.3779L0.8125 97.1201C12.3659 100.501 16.5216 99.9696 28.5242 99.9696H62.9998H97.4757C109.478 99.9696 113.634 100.501 125.187 97.1201L62.9998 97.3779Z" fill="#212B36"/>
<path fill-rule="evenodd" clip-rule="evenodd" d="M12.4622 91.001H114.046L112.394 89.1369H14.114L12.209 90.7147L12.4622 91.001ZM111.614 88.2562L110.053 86.4945H16.4552L14.6409 87.9699L14.8943 88.2562H111.614ZM109.272 85.6135L107.749 83.8942H18.759L16.9823 85.3272L17.2355 85.6135H109.272ZM106.969 83.0134L105.67 81.5474H20.8383L19.2861 82.7272L19.5395 83.0134H106.969Z" fill="#DBE0E4"/>
<path fill-rule="evenodd" clip-rule="evenodd" d="M17.5732 83.4981L20.2391 80.4893H105.762L115.505 91.4856H10.4961L17.5732 83.4981Z" fill="#CBD1D7"/>
<path fill-rule="evenodd" clip-rule="evenodd" d="M12.209 90.7144H113.792L112.141 88.8503H13.8606L12.209 90.7144ZM111.36 87.9695L109.799 86.2078H16.2019L14.6411 87.9695H111.36ZM109.019 85.3269L107.496 83.6076H18.5055L16.9823 85.3269H109.019ZM106.715 82.7268L105.416 81.2607H20.5849L19.2859 82.7268H106.715Z" fill="#4D555E"/>
<path fill-rule="evenodd" clip-rule="evenodd" d="M49.6016 96.9528L51.8909 90.7144H74.1079L76.3975 96.9528H49.6016Z" fill="#CBD1D7"/>
<path fill-rule="evenodd" clip-rule="evenodd" d="M50.7051 96.1813H75.2947L73.5714 91.4858H52.4283L50.7051 96.1813Z" fill="#4D555E"/>
<path fill-rule="evenodd" clip-rule="evenodd" d="M109.754 20.6758H16.2441V79.9872H16.4607H62.9993H109.538H109.754V20.6758Z" fill="#212B36"/>
<path fill-rule="evenodd" clip-rule="evenodd" d="M19.8867 76.7016V24.3267H106.112V76.7016H19.8867Z" fill="#DBE0E4"/>
<path fill-rule="evenodd" clip-rule="evenodd" d="M50.8914 5.56738H86.2194V72.2595L36.9873 72.2194L34.8887 70.2505L36.9873 19.8871L50.8914 19.9272V5.56738Z" fill="#A7B1BC"/>
<path fill-rule="evenodd" clip-rule="evenodd" d="M49.9799 0H88.3146V70.2504H34.8887V15.1263H49.9799V0Z" fill="#F1F3F4"/>
<path fill-rule="evenodd" clip-rule="evenodd" d="M40.0762 61.7703H83.1281V64.5245H40.0762V61.7703ZM40.0762 56.6813H83.1281V59.4355H40.0762V56.6813ZM40.0762 51.5923H83.1281V54.3465H40.0762V51.5923ZM40.0762 46.5034H83.1281V49.2576H40.0762V46.5034ZM40.0762 41.4146H83.1281V44.1688H40.0762V41.4146ZM40.0762 36.3256H83.1281V39.0798H40.0762V36.3256ZM40.0762 31.2366H83.1281V33.9908H40.0762V31.2366Z" fill="#A7B1BC"/>
<path fill-rule="evenodd" clip-rule="evenodd" d="M56.4297 5.97266H93.5662V22.4307H56.4297V5.97266Z" fill="#03724D"/>
<path fill-rule="evenodd" clip-rule="evenodd" d="M88.3145 26.4566L93.5657 22.4309H88.3145V26.4566Z" fill="#03724D"/>
<path fill-rule="evenodd" clip-rule="evenodd" d="M49.9799 0L34.8887 15.0548V15.1263H49.9799V0Z" fill="#E5E8EB"/>
<path fill-rule="evenodd" clip-rule="evenodd" d="M84.8831 49.3047C91.954 49.3047 97.686 55.0501 97.686 62.1374C97.686 69.2247 91.954 74.9701 84.8831 74.9701C77.8122 74.9701 72.0801 69.2247 72.0801 62.1374C72.0801 55.0501 77.8122 49.3047 84.8831 49.3047Z" fill="#E5E8EB"/>
<path fill-rule="evenodd" clip-rule="evenodd" d="M84.8833 50.4653C91.3147 50.4653 96.5283 55.691 96.5283 62.1374C96.5283 68.5837 91.3147 73.8094 84.8833 73.8094C78.4519 73.8094 73.2383 68.5837 73.2383 62.1374C73.2383 55.691 78.4519 50.4653 84.8833 50.4653Z" fill="white"/>
<path fill-rule="evenodd" clip-rule="evenodd" d="M84.8833 55.5692L81.8571 59.0723L78.831 62.5753L82.8035 62.5753L82.8035 68.7056L86.963 68.7056L86.963 62.5753L90.9355 62.5753L87.9094 59.0723L84.8833 55.5692Z" fill="#03724D"/>
<path fill-rule="evenodd" clip-rule="evenodd" d="M34.8887 15.1263H49.9799V0H50.6052V15.1263H50.6054V15.753H50.6052V15.7532H49.9799V15.753H34.8887V15.1263Z" fill="#CBD1D7"/>
<path d="M66.2626 18.8334C65.6278 18.8334 65.0311 18.7189 64.4726 18.4898C63.9141 18.2607 63.4295 17.9405 63.0189 17.5291C62.6085 17.1176 62.2827 16.6298 62.0414 16.0659C61.8001 15.5018 61.6797 14.8889 61.6797 14.2273V14.2018C61.6797 13.5571 61.7981 12.9527 62.0351 12.3886C62.2721 11.8245 62.5979 11.3323 63.0125 10.9126C63.4272 10.4926 63.9203 10.164 64.4915 9.92646C65.0627 9.68893 65.6869 9.57007 66.364 9.57007C66.8209 9.57007 67.2358 9.6145 67.608 9.70373C67.9804 9.79279 68.321 9.92008 68.63 10.0854C68.939 10.2508 69.2182 10.448 69.4679 10.6771C69.7176 10.9062 69.9398 11.1563 70.1343 11.4278L68.2809 12.8657C68.0271 12.5434 67.7477 12.2888 67.443 12.1021C67.1383 11.9156 66.7702 11.8222 66.3385 11.8222C66.0254 11.8222 65.7398 11.8837 65.4817 12.0067C65.2236 12.1297 65.0014 12.2973 64.8152 12.5093C64.629 12.7213 64.4831 12.9716 64.3772 13.2601C64.2715 13.5487 64.2186 13.8539 64.2186 14.1763V14.2018C64.2186 14.5325 64.2715 14.8443 64.3772 15.137C64.4831 15.4296 64.629 15.682 64.8152 15.8942C65.0014 16.1062 65.2236 16.2738 65.4817 16.3968C65.7398 16.5198 66.0254 16.5813 66.3385 16.5813C66.5671 16.5813 66.7766 16.5558 66.967 16.505C67.1574 16.454 67.3308 16.3799 67.4875 16.2822C67.6441 16.1848 67.7922 16.0702 67.9317 15.9386C68.0715 15.8072 68.2089 15.6608 68.3443 15.4995L70.1977 16.8229C69.9862 17.1113 69.7556 17.3786 69.5059 17.6246C69.2562 17.8705 68.9726 18.0826 68.6554 18.2607C68.338 18.439 67.9826 18.5788 67.5891 18.6806C67.1957 18.7824 66.7536 18.8334 66.2626 18.8334ZM74.7428 18.8079C73.9474 18.8079 73.1919 18.6849 72.4768 18.4369C71.7618 18.1887 71.129 17.8177 70.5789 17.3235L71.9499 15.6778C72.8386 16.3904 73.7992 16.7466 74.8317 16.7466C75.1618 16.7466 75.4136 16.6936 75.587 16.5876C75.7605 16.4817 75.8473 16.3312 75.8473 16.136V16.1128C75.8473 16.0194 75.8262 15.9367 75.7839 15.8647C75.7416 15.7926 75.6633 15.7226 75.549 15.6548C75.4347 15.5869 75.2825 15.5211 75.0921 15.4575C74.9016 15.394 74.6542 15.3282 74.3495 15.2603C73.8755 15.1501 73.4354 15.0292 73.0292 14.8998C72.6229 14.7684 72.2696 14.5987 71.9692 14.3908C71.6688 14.1831 71.4318 13.9242 71.2583 13.6167C71.0849 13.307 70.9981 12.9233 70.9981 12.4673V12.4418C70.9981 12.0262 71.0765 11.6445 71.233 11.2988C71.3896 10.951 71.6181 10.6499 71.9185 10.3953C72.2189 10.143 72.5806 9.94577 73.0039 9.80572C73.427 9.66568 73.9053 9.59575 74.4383 9.59575C75.2 9.59575 75.8791 9.69549 76.476 9.89683C77.0726 10.0961 77.6122 10.3931 78.0946 10.7855L76.8633 12.535C76.4571 12.2467 76.0404 12.0282 75.613 11.8798C75.1856 11.7313 74.773 11.657 74.3751 11.657C74.0788 11.657 73.8568 11.7122 73.7087 11.8224C73.5606 11.9326 73.4865 12.0684 73.4865 12.2296V12.2551C73.4865 12.3546 73.5097 12.4439 73.5563 12.5202C73.6028 12.5965 73.6833 12.6666 73.7974 12.7302C73.9116 12.7937 74.0682 12.8574 74.2672 12.921C74.466 12.9846 74.7178 13.0504 75.0225 13.1182C75.5303 13.2285 75.9893 13.3578 76.3998 13.5042C76.8104 13.6527 77.1594 13.8329 77.4471 14.0451C77.7347 14.2571 77.9549 14.5138 78.1073 14.8128C78.2596 15.1139 78.3359 15.4724 78.3359 15.8859V15.9114C78.3359 16.3694 78.2491 16.7766 78.0756 17.1308C77.9022 17.4872 77.6588 17.7903 77.3455 18.0406C77.0324 18.2886 76.6557 18.4796 76.2156 18.6111C75.7753 18.7423 75.2845 18.8079 74.7428 18.8079ZM78.8179 9.74817H81.5727L83.5912 15.385L85.6098 9.74817H88.3138L84.7084 18.7189H82.4233L78.8179 9.74817Z" fill="#DBE0E4"/>
</svg>
