<svg width="20" height="20" viewBox="0 0 20 20" fill="none" xmlns="http://www.w3.org/2000/svg">
<path fill-rule="evenodd" clip-rule="evenodd" d="M12.3402 5.59366C11.8424 5.32755 11.3044 5.14919 10.75 5.06445V2.6219e-06C12.1344 0.104119 13.4848 0.495618 14.714 1.15263C16.1643 1.92784 17.4011 3.04878 18.3147 4.41614C19.2284 5.7835 19.7907 7.35508 19.9519 8.99167C19.9594 9.06837 19.9661 9.14509 19.9719 9.22184H14.9074C14.7978 8.50456 14.5321 7.81889 14.1277 7.21379C13.6742 6.53498 13.0602 5.9785 12.3402 5.59366ZM4.4443 1.65714C5.88019 0.697713 7.53634 0.128875 9.25 0V5.06445C8.53465 5.17378 7.84869 5.43871 7.24195 5.84412C6.42556 6.38961 5.78927 7.16494 5.41353 8.07206C5.03778 8.97918 4.93947 9.97735 5.13102 10.9403C5.27339 11.656 5.57112 12.3284 5.99965 12.9116L2.41854 16.4927C1.29792 15.1898 0.529062 13.6165 0.192152 11.9227C-0.193701 9.98293 0.00433284 7.97227 0.761209 6.14501C1.51809 4.31775 2.79981 2.75596 4.4443 1.65714ZM3.47921 17.5533C4.53174 18.4586 5.76345 19.1367 7.09718 19.5412C8.67088 20.0186 10.338 20.1005 11.9509 19.7797C13.5488 19.4618 15.0446 18.7585 16.3084 17.731L11.8014 14.5979C11.5323 14.7026 11.2537 14.7841 10.9685 14.8408C10.1678 15.0001 9.34019 14.9594 8.55895 14.7224C8.01876 14.5586 7.51228 14.3044 7.06032 13.9722L3.47921 17.5533ZM14.5865 11.8716C14.7399 11.5013 14.8473 11.1151 14.9074 10.7218H19.9719C19.8926 11.7762 19.6462 12.8151 19.2388 13.7987C18.7999 14.8583 18.1835 15.831 17.4194 16.6765L13.2155 13.7541C13.815 13.2445 14.2851 12.5993 14.5865 11.8716Z" fill="#212B36"/>
</svg>
