<svg width="20" height="21" viewBox="0 0 20 21" fill="none" xmlns="http://www.w3.org/2000/svg">
<path d="M9.97348 3.83414C11.4939 3.81195 12.9248 4.25014 14.5547 5.41702C14.576 5.43488 14.5973 5.45272 14.6187 5.47054C14.6319 5.48161 14.6451 5.49269 14.6586 5.5041C14.5745 5.60454 14.4802 5.69489 14.3862 5.78643C14.3676 5.8046 14.349 5.82278 14.3305 5.84095C14.2802 5.89007 14.2299 5.93914 14.1796 5.9882C14.1269 6.03956 14.0743 6.09096 14.0217 6.14236C13.9221 6.23959 13.8226 6.33677 13.723 6.43395C13.6095 6.54462 13.4961 6.65534 13.3828 6.76606C13.1496 6.99372 12.9164 7.22134 12.6832 7.44891C12.6206 7.42592 12.5774 7.39783 12.5254 7.35639C12.2044 7.10897 11.834 6.92941 11.4504 6.79581C11.4387 6.79166 11.427 6.78751 11.415 6.78324C11.2638 6.73035 11.1098 6.69409 10.9528 6.66155C10.9272 6.65619 10.9272 6.65619 10.9011 6.65072C10.6536 6.6017 10.4073 6.58703 10.1554 6.58808C10.1421 6.58811 10.1289 6.58813 10.1152 6.58816C9.90397 6.58887 9.69798 6.59872 9.48979 6.63616C9.47514 6.63872 9.46049 6.64129 9.44539 6.64394C9.0313 6.71811 8.64361 6.8492 8.27185 7.04254C8.26129 7.04794 8.25073 7.05333 8.23986 7.0589C8.01147 7.17617 7.80113 7.31578 7.60346 7.47794C7.5958 7.48414 7.58814 7.49034 7.58024 7.49673C7.39137 7.64974 7.22083 7.81191 7.06875 8.00043C7.05495 8.01668 7.0411 8.03289 7.02721 8.04907C6.90802 8.18916 6.80761 8.33747 6.71228 8.49389C6.70246 8.50991 6.70246 8.50991 6.69244 8.52625C6.36838 9.05989 6.16325 9.70391 6.1597 10.3272C6.1596 10.3396 6.1595 10.352 6.15939 10.3648C6.15913 10.4045 6.15903 10.4443 6.15901 10.4841C6.159 10.4977 6.15899 10.5113 6.15898 10.5253C6.15922 10.7365 6.16808 10.9418 6.20728 11.1499C6.20983 11.164 6.21238 11.1782 6.215 11.1927C6.28879 11.5948 6.42699 11.9794 6.62316 12.34C6.62871 12.3503 6.63426 12.3607 6.63998 12.3714C7.11846 13.2611 7.9665 13.9211 8.94023 14.2267C8.95218 14.2306 8.96412 14.2344 8.97643 14.2384C9.30153 14.3414 9.65467 14.4022 9.99665 14.4038C10.0106 14.404 10.0245 14.4041 10.0388 14.4042C10.0836 14.4044 10.1283 14.4045 10.173 14.4045C10.196 14.4045 10.196 14.4045 10.2194 14.4046C10.4547 14.4043 10.6833 14.3959 10.9157 14.3574C10.9311 14.3549 10.9465 14.3525 10.9624 14.35C11.7044 14.2321 12.3902 13.9373 12.9357 13.4285C12.9484 13.4169 12.961 13.4053 12.9741 13.3933C13.0764 13.297 13.1637 13.1918 13.2476 13.0802C13.2538 13.0719 13.26 13.0637 13.2664 13.0552C13.5352 12.6923 13.674 12.291 13.7972 11.861C12.5963 11.861 11.3954 11.861 10.1582 11.861C10.1582 11.0085 10.1582 10.156 10.1582 9.27762C12.256 9.27762 14.3539 9.27762 16.5153 9.27762C16.6003 9.70712 16.6672 10.107 16.6666 10.5403C16.6666 10.5593 16.6666 10.5593 16.6666 10.5788C16.6646 11.6073 16.4604 12.6348 16.0251 13.5736C16.0195 13.5859 16.0139 13.5982 16.0082 13.6109C15.7909 14.087 15.4956 14.5265 15.1555 14.9268C15.1357 14.9503 15.1162 14.974 15.0968 14.9978C15.0355 15.0726 14.9722 15.1421 14.9013 15.2084C14.872 15.2373 14.8451 15.2668 14.818 15.2976C14.7631 15.3594 14.7041 15.4156 14.6429 15.4713C14.6263 15.4864 14.6263 15.4864 14.6093 15.5019C14.2342 15.842 13.8159 16.1353 13.3664 16.3747C13.3454 16.386 13.3454 16.386 13.3239 16.3975C12.5115 16.8287 11.5995 17.0788 10.678 17.144C10.6678 17.1448 10.6576 17.1456 10.647 17.1464C9.25622 17.257 7.80167 16.9166 6.40037 16.07C6.38903 16.0627 6.37768 16.0554 6.36599 16.0479C6.10961 15.8822 5.86353 15.697 5.63666 15.4943C5.61607 15.4761 5.59539 15.458 5.57423 15.4404C5.48197 15.3635 5.39675 15.2802 5.31124 15.1963C5.28552 15.1711 5.25972 15.1459 5.23392 15.1208C5.14924 15.0381 5.06622 14.9551 4.98933 14.8653C4.97747 14.8517 4.97747 14.8517 4.96536 14.8378C4.43673 14.2282 4.01697 13.5282 3.74168 12.7754C3.73594 12.7598 3.7302 12.7443 3.72429 12.7283C3.49357 12.0973 3.35115 11.4148 3.34065 10.7435C3.34035 10.7262 3.34004 10.709 3.33973 10.6912C3.3168 9.24776 3.71851 7.84586 4.87051 6.27332C4.88344 6.25817 4.89636 6.24301 4.90927 6.22785C5.05376 6.059 5.20637 5.89888 5.36562 5.74329C5.39043 5.71902 5.41511 5.69463 5.4398 5.67024C5.53756 5.57422 5.63817 5.48676 5.74684 5.40251C5.76303 5.38911 5.77914 5.37562 5.79511 5.36197C6.78286 4.52155 8.07694 4.01985 9.97348 3.83414Z" fill="#34A853"/>
<path d="M9.97348 3.83414C11.4939 3.81195 12.9248 4.25014 14.5547 5.41702C14.576 5.43488 14.5973 5.45272 14.6187 5.47054C14.6319 5.48161 14.6451 5.49269 14.6586 5.5041C14.5745 5.60454 14.4802 5.69489 14.3862 5.78643C14.3676 5.8046 14.349 5.82278 14.3305 5.84095C14.2802 5.89007 14.2299 5.93914 14.1796 5.9882C14.1269 6.03956 14.0743 6.09096 14.0217 6.14236C13.9221 6.23959 13.8226 6.33677 13.723 6.43395C13.6095 6.54462 13.4961 6.65534 13.3828 6.76606C13.1496 6.99372 12.9164 7.22134 12.6832 7.44891C12.6206 7.42592 12.5774 7.39783 12.5254 7.35639C12.2044 7.10897 11.834 6.92941 11.4504 6.79581C11.4387 6.79166 11.427 6.78751 11.415 6.78324C11.2638 6.73035 11.1098 6.69409 10.9528 6.66155C10.9272 6.65619 10.9272 6.65619 10.9011 6.65072C10.6536 6.6017 10.4073 6.58703 10.1554 6.58808C10.1421 6.58811 10.1289 6.58813 10.1152 6.58816C9.90397 6.58887 9.69798 6.59872 9.48979 6.63616C9.47514 6.63872 9.46049 6.64129 9.44539 6.64394C9.0313 6.71811 8.64361 6.8492 8.27185 7.04254C8.26129 7.04794 8.25073 7.05333 8.23986 7.0589C8.01147 7.17617 7.80113 7.31578 7.60346 7.47794C7.5958 7.48414 7.58814 7.49034 7.58024 7.49673C7.39137 7.64974 7.22083 7.81191 7.06875 8.00043C7.05495 8.01668 7.0411 8.03289 7.02721 8.04907C6.90802 8.18916 6.80761 8.33747 6.71228 8.49389C6.70246 8.50991 6.70246 8.50991 6.69244 8.52625C6.36838 9.05989 6.16325 9.70391 6.1597 10.3272C6.1596 10.3396 6.1595 10.352 6.15939 10.3648C6.15913 10.4045 6.15903 10.4443 6.15901 10.4841C6.159 10.4977 6.15899 10.5113 6.15898 10.5253C6.15922 10.7365 6.16808 10.9418 6.20728 11.1499C6.21146 11.1721 6.21146 11.1721 6.21572 11.1948C6.2455 11.35 6.27749 11.5033 6.33202 11.6522C6.34207 11.6912 6.33988 11.7075 6.32611 11.7449C6.29234 11.773 6.25913 11.798 6.22306 11.8229C6.20117 11.8385 6.1793 11.8541 6.15744 11.8697C6.14034 11.8819 6.14034 11.8819 6.1229 11.8943C6.06722 11.9344 6.0129 11.9762 5.95849 12.018C5.86404 12.0902 5.76869 12.161 5.67257 12.2311C5.54254 12.326 5.41427 12.4228 5.28644 12.5205C5.21249 12.5768 5.13799 12.6325 5.0636 12.6883C5.03265 12.7116 5.00171 12.7349 4.97077 12.7581C4.88447 12.8231 4.79795 12.8877 4.71142 12.9523C4.64925 12.9987 4.58716 13.0453 4.52518 13.092C4.49177 13.1171 4.45835 13.1422 4.42492 13.1673C4.41256 13.1765 4.4002 13.1858 4.38747 13.1954C4.34552 13.2269 4.30353 13.2583 4.26154 13.2897C4.24803 13.2999 4.23453 13.31 4.22062 13.3205C4.20778 13.33 4.19493 13.3396 4.1817 13.3495C4.17025 13.3581 4.1588 13.3667 4.14701 13.3755C4.11201 13.4002 4.07603 13.4218 4.03874 13.443C3.64127 12.6941 3.42305 11.8585 3.3555 11.0192C3.35422 11.0038 3.35422 11.0038 3.3529 10.9881C3.24009 9.5731 3.60876 8.11802 4.87051 6.27332C4.88344 6.25817 4.89636 6.24301 4.90927 6.22785C5.05376 6.059 5.20637 5.89888 5.36562 5.74329C5.39043 5.71902 5.41511 5.69463 5.4398 5.67024C5.53756 5.57422 5.63817 5.48676 5.74684 5.40251C5.76303 5.38911 5.77914 5.37562 5.79511 5.36197C6.78286 4.52155 8.07694 4.01985 9.97348 3.83414Z" fill="#EA4334"/>
<path d="M10.1582 9.27762C12.256 9.27762 14.3539 9.27762 16.5153 9.27762C16.6003 9.70712 16.6672 10.107 16.6666 10.5403C16.6666 10.553 16.6666 10.5657 16.6666 10.5788C16.6646 11.6073 16.4604 12.6348 16.0251 13.5736C16.0195 13.5859 16.0139 13.5982 16.0082 13.6109C15.7909 14.087 15.4956 14.5265 15.1555 14.9268C15.1357 14.9503 15.1162 14.974 15.0968 14.9978C15.0345 15.0739 14.9695 15.1441 14.898 15.212C14.8688 15.2405 14.8421 15.2699 14.8155 15.3007C14.7547 15.3703 14.6846 15.4295 14.6141 15.4894C14.5385 15.4668 14.4868 15.4213 14.4275 15.3724C14.4061 15.3551 14.3847 15.3378 14.3633 15.3206C14.3476 15.3079 14.3476 15.3079 14.3316 15.2951C14.2797 15.2539 14.226 15.2153 14.1723 15.1765C14.1112 15.1321 14.0512 15.0862 13.9912 15.0404C13.9143 14.9818 13.8374 14.9233 13.76 14.8653C13.6714 14.7988 13.5831 14.7318 13.4949 14.6646C13.43 14.6152 13.3649 14.566 13.2996 14.517C13.2109 14.4505 13.1227 14.3834 13.0345 14.3163C12.9695 14.2669 12.9044 14.2177 12.8391 14.1687C12.807 14.1445 12.7748 14.1203 12.7426 14.0961C12.7316 14.0879 12.7207 14.0796 12.7094 14.0711C12.6731 14.0438 12.6368 14.0165 12.6006 13.9891C12.5891 13.9804 12.5776 13.9718 12.5657 13.9629C12.5126 13.9227 12.4617 13.8831 12.4158 13.8349C12.4317 13.8243 12.4475 13.8138 12.4638 13.8029C12.7636 13.6008 13.0329 13.3694 13.2476 13.0802C13.2538 13.0719 13.26 13.0637 13.2664 13.0552C13.5352 12.6923 13.674 12.291 13.7972 11.861C12.5963 11.861 11.3954 11.861 10.1582 11.861C10.1582 11.0085 10.1582 10.156 10.1582 9.27762Z" fill="#4185F3"/>
<path d="M4.03874 7.55051C4.12109 7.59164 4.18778 7.64355 4.25864 7.70137C4.31056 7.74327 4.36438 7.78251 4.41842 7.82173C4.50562 7.88509 4.59183 7.94953 4.67742 8.01494C4.76093 8.07872 4.84492 8.14174 4.92992 8.20362C5.02646 8.2739 5.12158 8.34582 5.21642 8.41826C5.28865 8.47332 5.36147 8.52749 5.43492 8.58097C5.51868 8.64195 5.60144 8.70404 5.68371 8.76693C5.77939 8.84005 5.876 8.91182 5.97335 8.98281C6.0625 9.04799 6.15165 9.11315 6.23977 9.17965C6.25275 9.18927 6.25275 9.18927 6.26598 9.19908C6.30582 9.22942 6.3246 9.2442 6.34096 9.29213C6.33404 9.32729 6.33404 9.32729 6.32175 9.36935C6.31731 9.38504 6.31287 9.40073 6.3083 9.41689C6.30345 9.43379 6.29861 9.4507 6.29361 9.46811C6.21622 9.74787 6.16136 10.0366 6.1597 10.3272C6.1596 10.3396 6.1595 10.352 6.15939 10.3648C6.15913 10.4045 6.15903 10.4443 6.15901 10.4841C6.159 10.4977 6.15899 10.5113 6.15898 10.5253C6.15922 10.7365 6.16808 10.9418 6.20728 11.1499C6.21146 11.1721 6.21146 11.1721 6.21572 11.1948C6.2455 11.35 6.27749 11.5033 6.33202 11.6522C6.34207 11.6912 6.33988 11.7075 6.32611 11.7449C6.29234 11.773 6.25913 11.798 6.22306 11.8229C6.20117 11.8385 6.1793 11.8541 6.15744 11.8697C6.14604 11.8778 6.13464 11.8859 6.1229 11.8943C6.06722 11.9344 6.0129 11.9762 5.95849 12.018C5.86404 12.0902 5.76869 12.161 5.67257 12.2311C5.54254 12.326 5.41427 12.4228 5.28644 12.5205C5.21249 12.5768 5.13799 12.6325 5.0636 12.6883C5.03265 12.7116 5.00171 12.7349 4.97077 12.7581C4.88447 12.8231 4.79795 12.8877 4.71142 12.9523C4.64925 12.9987 4.58716 13.0453 4.52518 13.092C4.49177 13.1171 4.45835 13.1422 4.42492 13.1673C4.40638 13.1812 4.40638 13.1812 4.38747 13.1954C4.34552 13.2269 4.30353 13.2583 4.26154 13.2897C4.24803 13.2999 4.23453 13.31 4.22062 13.3205C4.20136 13.3348 4.20136 13.3348 4.1817 13.3495C4.17025 13.3581 4.1588 13.3667 4.14701 13.3755C4.11201 13.4002 4.07603 13.4218 4.03874 13.443C3.64127 12.6941 3.42305 11.8585 3.3555 11.0192C3.35464 11.009 3.35379 10.9987 3.3529 10.9881C3.26931 9.93956 3.45482 8.87384 3.86422 7.90337C3.87139 7.88632 3.87857 7.86927 3.88596 7.8517C3.9308 7.74763 3.9813 7.64848 4.03874 7.55051Z" fill="#FABB05"/>
</svg>
