<svg width="21" height="18" viewBox="0 0 21 18" fill="none" xmlns="http://www.w3.org/2000/svg">
<path d="M12 0C14.6234 0 16.75 2.12665 16.75 4.75C16.75 5.16421 16.4142 5.5 16 5.5C15.5858 5.5 15.25 5.16421 15.25 4.75C15.25 2.95507 13.7949 1.5 12 1.5H7.46387C8.26132 2.34965 8.75 3.49279 8.75 4.75V12.75C8.75 14.0072 8.26132 15.1503 7.46387 16H12C13.7949 16 15.25 14.5449 15.25 12.75C15.25 12.3358 15.5858 12 16 12C16.4142 12 16.75 12.3358 16.75 12.75C16.75 15.3734 14.6234 17.5 12 17.5H4.75C2.12665 17.5 0 15.3734 0 12.75V4.75C0 2.12665 2.12665 0 4.75 0H12ZM17.1465 6.21973C17.4394 5.92684 17.9141 5.92684 18.207 6.21973L19.5 7.5127C20.1833 8.1961 20.1833 9.3039 19.5 9.9873L18.207 11.2803C17.9141 11.5732 17.4394 11.5732 17.1465 11.2803C16.8536 10.9874 16.8536 10.5126 17.1465 10.2197L17.8662 9.5H11.75C11.3358 9.5 11 9.16421 11 8.75C11 8.33579 11.3358 8 11.75 8H17.8662L17.1465 7.28027C16.8536 6.98738 16.8536 6.51262 17.1465 6.21973Z" fill="#B71931"/>
</svg>
