<svg width="24" height="24" viewBox="0 0 24 24" fill="none" xmlns="http://www.w3.org/2000/svg">
<path d="M14 3.25C16.6234 3.25 18.75 5.37665 18.75 8C18.75 8.41421 18.4142 8.75 18 8.75C17.5858 8.75 17.25 8.41421 17.25 8C17.25 6.20507 15.7949 4.75 14 4.75H9.46387C10.2613 5.59965 10.75 6.74279 10.75 8V16C10.75 17.2572 10.2613 18.4003 9.46387 19.25H14C15.7949 19.25 17.25 17.7949 17.25 16C17.25 15.5858 17.5858 15.25 18 15.25C18.4142 15.25 18.75 15.5858 18.75 16C18.75 18.6234 16.6234 20.75 14 20.75H6.75C4.12665 20.75 2 18.6234 2 16V8C2 5.37665 4.12665 3.25 6.75 3.25H14ZM19.1465 9.46973C19.4394 9.17684 19.9141 9.17684 20.207 9.46973L21.5 10.7627C22.1833 11.4461 22.1833 12.5539 21.5 13.2373L20.207 14.5303C19.9141 14.8232 19.4394 14.8232 19.1465 14.5303C18.8536 14.2374 18.8536 13.7626 19.1465 13.4697L19.8662 12.75H13.75C13.3358 12.75 13 12.4142 13 12C13 11.5858 13.3358 11.25 13.75 11.25H19.8662L19.1465 10.5303C18.8536 10.2374 18.8536 9.76262 19.1465 9.46973Z" fill="#28303F"/>
</svg>
