<svg width="22" height="22" viewBox="0 0 22 22" fill="none" xmlns="http://www.w3.org/2000/svg">
<path d="M10.083 13.7497H11.9163V15.583H10.083V13.7497ZM10.083 6.41634H11.9163V11.9163H10.083V6.41634ZM10.9905 1.83301C5.93051 1.83301 1.83301 5.93967 1.83301 10.9997C1.83301 16.0597 5.93051 20.1663 10.9905 20.1663C16.0597 20.1663 20.1663 16.0597 20.1663 10.9997C20.1663 5.93967 16.0597 1.83301 10.9905 1.83301ZM10.9997 18.333C6.94801 18.333 3.66634 15.0513 3.66634 10.9997C3.66634 6.94801 6.94801 3.66634 10.9997 3.66634C15.0513 3.66634 18.333 6.94801 18.333 10.9997C18.333 15.0513 15.0513 18.333 10.9997 18.333Z" fill="#B71931"/>
</svg>
