<svg width="32" height="36" viewBox="0 0 32 36" fill="none" xmlns="http://www.w3.org/2000/svg">
<path d="M31.3497 17.3634C31.3497 14.9145 29.8613 12.8134 27.7404 11.9164C28.1149 11.192 28.3278 10.3702 28.3278 9.49827C28.3278 6.58669 25.969 4.22642 23.0591 4.22642C22.2301 4.22642 21.4461 4.41858 20.7484 4.75988C20.1284 2.53869 18.0925 0.908691 15.6748 0.908691C13.2572 0.908691 11.2213 2.53869 10.6013 4.75988C9.90354 4.41852 9.11956 4.22642 8.29053 4.22642C5.38071 4.22642 3.02187 6.58669 3.02187 9.49827C3.02187 10.3702 3.2347 11.192 3.60929 11.9164C1.48838 12.8135 0 14.9145 0 17.3634C0 20.5371 2.50063 23.1232 5.63757 23.2648C6.07492 24.8498 7.76382 26.0314 9.78219 26.0314C10.9261 26.0314 11.9638 25.6513 12.7285 25.034C13.4933 25.6513 14.531 26.0314 15.6748 26.0314C16.8187 26.0314 17.8565 25.6513 18.6212 25.034C19.3859 25.6513 20.4236 26.0314 21.5675 26.0314C23.5859 26.0314 25.2748 24.8498 25.7121 23.2647C28.849 23.1231 31.3497 20.5371 31.3497 17.3634Z" fill="#03724D"/>
<path d="M11.8912 24.2421C11.3969 25.0135 9.3485 25.8761 8.58887 25.9251C8.67243 25.9416 8.75714 25.956 8.84255 25.9688C8.84938 25.9699 8.85621 25.971 8.86311 25.972C8.94966 25.9846 9.03707 25.9955 9.1254 26.0042C9.12768 26.0044 9.12995 26.0045 9.13223 26.0047C9.21167 26.0125 9.29196 26.018 9.37269 26.0224C9.39232 26.0235 9.41202 26.0245 9.43179 26.0254C9.51592 26.0292 9.60048 26.0316 9.68583 26.0316C10.7711 26.0316 11.7637 25.7285 12.5336 25.2272L12.6686 25.1369L11.9812 24.0991L11.8912 24.2421Z" fill="#023F2A"/>
<path d="M18.2541 25.4904L20.5085 21.9295C20.6869 21.6478 20.6329 21.278 20.3815 21.0592C20.1131 20.8255 19.7095 20.8407 19.4594 21.0941L17.7992 22.7766C17.579 22.9998 17.2017 22.8142 17.2436 22.5034L17.7319 18.8826C17.784 18.4957 17.4983 18.1454 17.1092 18.1191L16.6518 18.0881C16.3081 18.0649 16.0022 18.3048 15.9424 18.6444L15.0709 23.6006C15.0225 23.8762 14.6728 23.9671 14.4964 23.75L11.7671 20.3901C11.5782 20.1576 11.2588 20.0776 10.9829 20.1937L10.505 20.3947C10.1266 20.5539 9.97694 21.0117 10.1881 21.364L12.9928 26.0436C13.3989 26.7213 13.5664 27.5163 13.4649 28.3001C13.1014 31.1063 12.6499 33.7528 10.8021 35.9087H20.4437C18.4657 33.6008 17.9778 30.7308 17.716 27.7044C17.649 26.9272 17.837 26.1492 18.2541 25.4904Z" fill="#8C4D03"/>
<path d="M20.5084 21.9013C20.6873 21.619 20.6332 21.2485 20.381 21.0292C20.1118 20.795 19.707 20.8103 19.4562 21.0642L18.7125 21.817L17.7909 22.75C17.5701 22.9737 17.1917 22.7877 17.2337 22.4763L17.7234 18.8481C17.7744 18.4703 17.5032 18.1281 17.128 18.0865L15.7511 26.645C15.7279 26.7556 15.7099 26.8671 15.6973 26.9795C15.671 27.2134 15.6675 27.4506 15.688 27.6878C15.9507 30.7203 16.4401 33.5961 18.424 35.9087H20.4435C18.4596 33.5961 17.9702 30.7203 17.7077 27.6878C17.6403 26.9091 17.8289 26.1296 18.2472 25.4694L20.5084 21.9013Z" fill="#6B3B02"/>
</svg>
