<svg width="20" height="20" viewBox="0 0 20 20" fill="none" xmlns="http://www.w3.org/2000/svg">
<path fill-rule="evenodd" clip-rule="evenodd" d="M7.83872 2.40879C8.14783 1.94513 8.66821 1.66663 9.22547 1.66663H10.7749C11.3321 1.66663 11.8525 1.94513 12.1616 2.40879L12.9168 3.54163H16.0418C16.387 3.54163 16.6668 3.82145 16.6668 4.16663C16.6668 4.5118 16.387 4.79163 16.0418 4.79163H3.9585C3.61332 4.79163 3.3335 4.5118 3.3335 4.16663C3.3335 3.82145 3.61332 3.54163 3.9585 3.54163H7.0835L7.83872 2.40879ZM12.5002 18.3333H7.50016C5.65921 18.3333 4.16683 16.8409 4.16683 15V5.83329H15.8335V15C15.8335 16.8409 14.3411 18.3333 12.5002 18.3333ZM8.3335 8.54163C8.67867 8.54163 8.9585 8.82145 8.9585 9.16663V15C8.9585 15.3451 8.67867 15.625 8.3335 15.625C7.98832 15.625 7.7085 15.3451 7.7085 15V9.16663C7.7085 8.82145 7.98832 8.54163 8.3335 8.54163ZM11.6668 8.54163C12.012 8.54163 12.2918 8.82145 12.2918 9.16663V15C12.2918 15.3451 12.012 15.625 11.6668 15.625C11.3217 15.625 11.0418 15.3451 11.0418 15V9.16663C11.0418 8.82145 11.3217 8.54163 11.6668 8.54163Z" fill="#FF5630"/>
</svg>
